<?xml version="1.0" encoding="utf-8"?>
<!-- Generator: Adobe Illustrator 17.0.0, SVG Export Plug-In . SVG Version: 6.00 Build 0)  -->
<!DOCTYPE svg PUBLIC "-//W3C//DTD SVG 1.1//EN" "http://www.w3.org/Graphics/SVG/1.1/DTD/svg11.dtd">
<svg version="1.1" id="Isolation_Mode" xmlns="http://www.w3.org/2000/svg" xmlns:xlink="http://www.w3.org/1999/xlink" x="0px"
	 y="0px" width="161.688px" height="248.08px" viewBox="0 0 161.688 248.08" enable-background="new 0 0 161.688 248.08"
	 xml:space="preserve">
<path fill="#FFFFFF" d="M161.686,164.91c-0.105-6.48-1.249-12.779-3.332-18.84c-3.825-11.27-10.993-21.497-21.051-29.855
	c-7.991-6.668-17.383-11.672-27.561-14.906c-8.587-2.687-17.695-4.099-27.035-4.099h-3.724c-1.3,0-2.655,0.014-3.955,0.079
	c-19.024,0.806-36.874,7.455-50.668,18.925c-7.209,5.99-12.907,12.939-16.994,20.564c-4.655,8.679-7.219,18.215-7.364,28.131
	c-0.076,5.829,2.136,11.321,6.207,15.457c2.33,2.37,5.061,4.085,8.108,5.18c-0.133,0.376-0.222,0.769-0.286,1.144
	c-0.08,0.404-0.106,0.821-0.106,1.251v5.776c0,0.26,0,0.519,0.025,0.779c-3.121,0.964-5.974,2.708-8.274,5.051
	c-0.664,0.676-1.288,1.378-1.862,2.16c-3.667,5.047-4.696,11.604-2.77,17.539l3.838,11.841c3.293,10.16,12.686,16.992,23.381,16.992
	h103.131c10.694,0,20.09-6.832,23.394-16.992l3.826-11.841c1.926-5.961,0.896-12.492-2.784-17.539
	c-0.392-0.523-0.811-1.042-1.264-1.523c-2.406-2.693-5.463-4.633-8.873-5.688c0.038-0.261,0.065-0.52,0.065-0.779v-5.776
	c0-0.222-0.027-0.43-0.053-0.664c-0.026-0.39-0.105-0.769-0.181-1.159c3.746-0.962,7.167-2.914,9.94-5.751
	C159.565,176.231,161.764,170.739,161.686,164.91 M17.361,148.255c7.262-18.008,25.385-31.8,47.805-35.885
	c4.45-0.813,9.081-1.249,13.817-1.249h3.724c13.452,0,25.97,3.455,36.38,9.355c14.869,8.444,25.345,21.95,27.999,37.538
	c0.39,2.329,0.638,4.708,0.691,7.131c0.063,4.281-3.45,7.78-7.756,7.78h-15.029H57.41H21.667c-4.306,0-7.819-3.499-7.754-7.78
	C14.005,159.224,15.227,153.562,17.361,148.255 M145.395,214.951l-3.854,11.843c-1.415,4.384-5.527,7.377-10.146,7.377H28.264
	c-4.63,0-8.743-2.993-10.148-7.377l-3.825-11.843c-1.198-3.642,1.51-7.364,5.348-7.364h120.384
	C143.86,207.587,146.541,211.31,145.395,214.951"/>
<path fill="#FFFFFF" d="M59.648,137.495c4.763,0,8.589-3.228,8.589-7.194c0-4.003-3.826-7.249-8.589-7.249
	c-1.588,0-3.045,0.376-4.319,1.007c-1.38,0.691-2.55,1.688-3.305,2.903c-0.585,1.009-0.964,2.115-0.964,3.339
	C51.061,134.268,54.912,137.495,59.648,137.495"/>
<path fill="#FFFFFF" d="M100.246,137.116c4.734,0,8.586-3.227,8.586-7.234c0-3.98-3.852-7.208-8.586-7.208
	c-4.776,0-8.589,3.228-8.589,7.208C91.657,133.889,95.47,137.116,100.246,137.116"/>
<path fill="#FFFFFF" d="M119.477,161.19c4.45,0,8.066-3.047,8.066-6.795c0-3.732-3.616-6.79-8.066-6.79
	c-4.477,0-8.081,3.058-8.081,6.79C111.395,158.143,115,161.19,119.477,161.19"/>
<path fill="#FFFFFF" d="M39.974,163.245c4.737,0,8.591-3.228,8.591-7.222c0-3.996-3.854-7.223-8.591-7.223
	c-4.734,0-8.586,3.227-8.586,7.223C31.388,160.018,35.239,163.245,39.974,163.245"/>
<path fill="#FFFFFF" d="M74.716,161.995c1.497,1.055,3.408,1.692,5.518,1.692c4.75,0,8.588-3.24,8.588-7.222
	c0-1.056-0.259-2.029-0.743-2.928c-1.34-2.523-4.358-4.295-7.845-4.295c-4.762,0-8.588,3.227-8.588,7.223
	C71.645,158.678,72.842,160.668,74.716,161.995"/>
<path fill="#FFFFFF" d="M24.36,101.899c13.794-11.47,31.643-18.121,50.668-18.926c1.3-0.066,2.655-0.078,3.955-0.078h3.724
	c9.34,0,18.448,1.411,27.035,4.099c10.178,3.232,19.569,8.235,27.561,14.905c1.748,1.453,3.377,2.981,4.949,4.545
	c0.356,0.006,0.572,0.013,0.584,0.022c0.365-1.451,1.244-13.464,1.232-15.383c-0.157-22.245-24.282-34.911-11.308-48.41
	c0,0-10.969,3.74-11.633,13.759c-0.662,10.033,6.688,14.929,1.886,18.45c-7.195,5.218-31.175-2.022-11.278-24.812
	c0,0-1.707-22.446-23.435-34.123c0,0,11.123,23.986,0,26.94C71.412,47.382,68.001,18.158,84.318,0c0,0-31.593,9.799-33.505,40.987
	c-0.897,14.158,5.479,26.87-5.191,27.598c-4.905,0.351-7.077-8.549-2.55-15.093c0,0-16.72,6.194-20.286,33.843
	c-0.239,1.896-0.33,11.39-0.359,16.249C23.061,103.017,23.699,102.448,24.36,101.899"/>
</svg>
