<?xml version="1.0" encoding="utf-8"?>
<!-- Generator: Adobe Illustrator 17.0.0, SVG Export Plug-In . SVG Version: 6.00 Build 0)  -->
<!DOCTYPE svg PUBLIC "-//W3C//DTD SVG 1.1//EN" "http://www.w3.org/Graphics/SVG/1.1/DTD/svg11.dtd">
<svg version="1.1" id="Isolation_Mode" xmlns="http://www.w3.org/2000/svg" xmlns:xlink="http://www.w3.org/1999/xlink" x="0px"
	 y="0px" width="100px" height="105.976px" viewBox="0 0 100 105.976" enable-background="new 0 0 100 105.976"
	 xml:space="preserve">
<g>
	<path fill="#EC7E22" d="M19.998,10.531c0.262-0.607,0.996-2.282,1.124-2.508c1.87-3.295,4.072-3.277,4.072-3.277
		C24.34,5.351,24.11,6.57,24.678,6.759c1.234,0.416,1.196-1.48,2.049-3.212c1.872-3.817,5.933-3.543,5.933-3.543
		c-2.794,1.5-3.965,5.324-1.834,5.564c1.403,0.159,1.432-3.376,1.432-3.376c1.814,2.496,0.812,5.39,0.812,5.39
		c-3.441,1.91-1.139,3.957-0.055,3.645c0.725-0.213,0.162-1.176,0.77-2.402c0.607-1.224,2.035-1.171,2.035-1.171
		c-2.172,1.075-0.142,3.809-1.307,6.604c-0.101,0.241-0.838,1.705-0.956,1.869C33.557,16.126,20.1,10.49,19.998,10.531z"/>
	<path d="M72.392,75.28c-0.295-1.028-1.343-1.661-2.399-1.422l-9.043,2.041c2.052-2.286,5.027-3.855,9.332-3.855l-0.388-3.962
		h16.622v-1.693h-3.156v-1.317h16.067c0.317,0,0.574-0.257,0.574-0.574V25.322c0-0.317-0.257-0.574-0.574-0.574H53.951
		c-0.317,0-0.574,0.257-0.574,0.574V61.9H49.54c4.227-3.525,3.413-9.676,0.748-15.984c0.814-0.618,1.32-1.007,1.32-1.007
		c-3.164-6.436-6.912-10.93-10.24-13.995c-2.818-3.839-5.062-6.406-5.062-6.406c-0.831,0.243-1.601,0.499-2.315,0.768
		c0.889-4.01,0.609-13.093-4.954-14.769c-6.533-1.969-13.484-0.587-14.429,7.669c-2.097,0.555-3.736,0.999-3.733,1.034
		c0.01,0.096-0.619,1.052-0.619,1.052s3.006-0.018,6.153-0.07c-0.276,2.226,0.453,1.359,0.511,1.288
		c-0.081,0.101-3.344,4.182-3.835,5.731l2.69,0.602v1.396l0.747,0.644v0.644c0,0-0.604,0.215-0.312,0.645
		c0.293,0.43,1.152,1.074,1.152,1.074s1.62-0.375,4.084-0.784l-0.12,0.603l1.829,0.363l0.252-1.27
		c0.482-0.069,0.982-0.137,1.498-0.201c0.649-0.081,1.276-0.123,1.874-0.137c-1.333,2.927-0.185,6.222,1.976,9.34l-0.787,0.387
		l-3.638,1.239c-0.481,0.137-0.875,0.268-1.137,0.387l-2.031,0.692c0,0-1.58-0.173-2.195,0.805h-0.476
		c-0.541,0-0.981,0.439-0.981,0.98c0,0.518,0.402,0.941,0.91,0.977c-0.105,0.382-0.135,0.875,0.121,1.37
		c-0.87,0.621-2.003,1.854-2.783,4.27c-0.594-1.864-2.107-3.191-3.882-3.191v0.981c-1.214,0.122-2.171,1.292-2.171,2.715v2.489
		c0,1.423,0.956,2.594,2.171,2.715v0.981c0.612,0,1.192-0.159,1.715-0.442L8.749,80.971c0,0,1.613,0.405,3.349,1.2
		c-4.327-0.393-8.705,1.64-11.11,5.606l2.19,1.328C1.227,90.88,0,93.438,0,96.278c0,5.348,4.351,9.698,9.698,9.698
		c4.495,0,8.285-3.074,9.379-7.23l1.991,1.207c1.248-2.058,1.788-4.348,1.691-6.586h17.97c0.249,1.002,1.026,1.733,1.949,1.733
		h6.088c1.402,0.529,2.978,1.046,4.564,1.528c0.157,1.327,0.545,2.651,1.182,3.913l1.951-0.985c1.347,3.739,4.929,6.42,9.127,6.42
		c5.348,0,9.698-4.35,9.698-9.698c0-1.996-0.607-3.853-1.645-5.397l1.83-0.924c-2.923-5.788-9.985-8.111-15.774-5.188
		c-1.139,0.575-2.142,1.313-2.999,2.168c0.133-1.198,0.342-2.48,0.664-3.773L71.379,80c1.096-0.247,1.783-1.336,1.536-2.431
		l-0.042-0.185c1.663-0.27,3.81-0.3,5.977,0.559l0.793-2.001C76.976,74.886,74.378,74.939,72.392,75.28z M43.836,83.024v-1.004
		h11.094v1.004H43.836z M65.591,103.251c-3.136,0-5.795-2.082-6.669-4.935l2.408-1.216c0.385,2.001,2.149,3.518,4.26,3.518
		c2.392,0,4.339-1.946,4.339-4.339c0-1.133-0.437-2.166-1.151-2.94l2.408-1.216c0.864,1.161,1.377,2.6,1.377,4.156
		C72.563,100.122,69.435,103.251,65.591,103.251z M68.631,96.278c0,1.677-1.364,3.041-3.041,3.041c-1.609,0-2.927-1.258-3.031-2.841
		l0.291-0.147c0.029,1.488,1.246,2.689,2.74,2.689c1.512,0,2.742-1.23,2.742-2.743c0-0.884-0.423-1.67-1.075-2.172l0.293-0.148
		C68.211,94.516,68.631,95.348,68.631,96.278z M67.035,96.278c0,0.797-0.648,1.445-1.444,1.445c-0.797,0-1.445-0.648-1.445-1.445
		c0-0.249,0.064-0.484,0.175-0.689l1.466-0.74C66.49,94.945,67.035,95.548,67.035,96.278z M43.836,80.677v-1.004h11.094v1.004
		H43.836z M78.195,66.388H65.488c-1.423-0.15-3.105-0.327-4.891-0.516v-0.802h17.599V66.388z M18.034,21.458
		c0,0,0.142-0.003,0.372,0.001l0.24,0.886c0.052,0.192,0.225,0.318,0.415,0.318c0.037,0,0.075-0.005,0.113-0.015
		c0.229-0.062,0.365-0.298,0.303-0.528l-0.169-0.624c0.916,0.064,2.064,0.229,2.51,0.651c0.789,0.747-3.07,0.862-3.07,0.862
		L18.034,21.458z M19.866,48.93c0.195,0.09,0.407,0.141,0.629,0.141c0.584,0,1.1-0.343,1.417-0.867h0.813l0.478-1.56l0.83-0.12
		c0.601,2.294,1.193,4.694,1.193,4.694l9.764-1.707l2.845,4.901c-11.668,0-10.329,4.653-10.329,4.653l-4.343,24.162h3.865
		l-0.287,1.423c0,0-1.011,0.001-3.148,0c-1.491-3.231-3.585-6.741-6.249-8.74l1.307-19.991h-1.37
		C17.634,51.253,19.095,49.525,19.866,48.93z M9.698,103.251c-3.844,0-6.972-3.128-6.972-6.973c0-2.336,1.157-4.407,2.926-5.673
		l2.606,1.58C6.572,92.78,5.36,94.39,5.36,96.278c0,2.393,1.946,4.339,4.339,4.339c2.393,0,4.339-1.946,4.339-4.339
		c0-0.209-0.016-0.414-0.044-0.615l2.609,1.582C16.13,100.634,13.215,103.251,9.698,103.251z M12.739,96.278
		c0,1.677-1.364,3.041-3.041,3.041c-1.677,0-3.041-1.364-3.041-3.041c0-1.677,1.364-3.041,3.041-3.041
		c0.11,0,0.217,0.006,0.324,0.018l2.206,1.337C12.551,95.075,12.739,95.655,12.739,96.278z M10.805,54.235v-2.489
		c0-0.809,0.466-1.481,1.075-1.608v5.706C11.272,55.717,10.805,55.045,10.805,54.235z M37.95,90.854h-4.226
		c0-0.005,0.001-0.01,0.001-0.015c0-0.711-0.484-1.288-1.082-1.288h-0.495c0.48-2.841,4.38-25.872,4.829-26.895
		c0.127-0.291,1.069-0.471,2.381-0.579c-0.695,0.383-1.189,1.351-1.189,2.488v2.211c0,0.46,0.081,0.892,0.223,1.27
		c-0.6,0.602-1.004,1.095-1.024,1.309c-0.073,0.78,2.148,7.282,2.148,7.282L37.95,90.854z M54.929,84.366v1.004H43.836v-1.004
		H54.929z"/>
	<g>
		<path fill="#FFFFFF" d="M86.506,49.221c-0.013-0.789-0.152-1.556-0.406-2.293c-0.466-1.372-1.338-2.617-2.562-3.634
			c-0.973-0.812-2.116-1.421-3.355-1.814c-1.045-0.327-2.154-0.499-3.291-0.499h-0.453c-0.158,0-0.323,0.002-0.481,0.01
			c-2.316,0.098-4.488,0.907-6.168,2.304c-0.878,0.729-1.571,1.575-2.069,2.503c-0.567,1.056-0.879,2.217-0.896,3.424
			c-0.009,0.71,0.26,1.378,0.756,1.882c0.284,0.288,0.616,0.497,0.987,0.63c-0.016,0.046-0.027,0.094-0.035,0.139
			c-0.01,0.049-0.013,0.1-0.013,0.152v0.703c0,0.032,0,0.063,0.003,0.095c-0.38,0.117-0.727,0.33-1.007,0.615
			c-0.081,0.082-0.157,0.168-0.227,0.263c-0.446,0.614-0.572,1.413-0.337,2.135l0.467,1.441c0.401,1.237,1.544,2.068,2.846,2.068
			h12.554c1.302,0,2.445-0.832,2.848-2.068l0.466-1.441c0.234-0.726,0.109-1.521-0.339-2.135c-0.048-0.064-0.099-0.127-0.154-0.185
			c-0.293-0.328-0.665-0.564-1.08-0.692c0.005-0.032,0.008-0.063,0.008-0.095v-0.703c0-0.027-0.003-0.052-0.006-0.081
			c-0.003-0.047-0.013-0.094-0.022-0.141c0.456-0.117,0.872-0.355,1.21-0.7C86.247,50.599,86.515,49.931,86.506,49.221
			 M68.938,47.194c0.884-2.192,3.09-3.871,5.819-4.368c0.542-0.099,1.105-0.152,1.682-0.152h0.453c1.637,0,3.161,0.421,4.428,1.139
			c1.81,1.028,3.085,2.672,3.408,4.569c0.047,0.284,0.078,0.573,0.084,0.868c0.008,0.521-0.42,0.947-0.944,0.947h-1.829h-8.226
			h-4.351c-0.524,0-0.952-0.426-0.944-0.947C68.529,48.529,68.678,47.84,68.938,47.194 M84.523,55.312l-0.469,1.442
			c-0.172,0.534-0.673,0.898-1.235,0.898H70.265c-0.564,0-1.064-0.364-1.235-0.898l-0.466-1.442
			c-0.146-0.443,0.184-0.896,0.651-0.896h14.654C84.336,54.416,84.662,54.869,84.523,55.312"/>
		<path fill="#FFFFFF" d="M74.085,45.884c0.58,0,1.045-0.393,1.045-0.876c0-0.487-0.466-0.882-1.045-0.882
			c-0.193,0-0.371,0.046-0.526,0.123c-0.168,0.084-0.31,0.206-0.402,0.353c-0.071,0.123-0.117,0.257-0.117,0.406
			C73.04,45.491,73.509,45.884,74.085,45.884"/>
		<path fill="#FFFFFF" d="M79.027,45.838c0.576,0,1.045-0.393,1.045-0.881c0-0.485-0.469-0.877-1.045-0.877
			c-0.581,0-1.045,0.393-1.045,0.877C77.981,45.445,78.445,45.838,79.027,45.838"/>
		<path fill="#FFFFFF" d="M81.368,48.768c0.542,0,0.982-0.371,0.982-0.827c0-0.454-0.44-0.827-0.982-0.827
			c-0.545,0-0.984,0.372-0.984,0.827C80.384,48.398,80.823,48.768,81.368,48.768"/>
		<path fill="#FFFFFF" d="M71.69,49.018c0.577,0,1.046-0.393,1.046-0.879c0-0.486-0.469-0.879-1.046-0.879
			c-0.576,0-1.045,0.393-1.045,0.879C70.645,48.626,71.114,49.018,71.69,49.018"/>
		<path fill="#FFFFFF" d="M75.919,48.866c0.182,0.128,0.415,0.206,0.672,0.206c0.578,0,1.045-0.394,1.045-0.879
			c0-0.129-0.032-0.247-0.09-0.356c-0.163-0.307-0.531-0.523-0.955-0.523c-0.58,0-1.045,0.393-1.045,0.879
			C75.545,48.463,75.691,48.705,75.919,48.866"/>
		<path fill="#EC7E22" d="M69.79,41.551c1.679-1.396,3.852-2.206,6.168-2.304c0.158-0.008,0.323-0.009,0.481-0.009h0.453
			c1.137,0,2.246,0.172,3.291,0.499c1.239,0.393,2.382,1.002,3.355,1.814c0.213,0.177,0.411,0.363,0.602,0.553
			c0.043,0.001,0.07,0.002,0.071,0.003c0.044-0.177,0.151-1.639,0.15-1.872c-0.019-2.708-2.956-4.25-1.376-5.893
			c0,0-1.335,0.455-1.416,1.675c-0.081,1.221,0.814,1.817,0.23,2.246c-0.876,0.635-3.795-0.246-1.373-3.02
			c0,0-0.208-2.732-2.853-4.154c0,0,1.354,2.92,0,3.279c-2.056,0.547-2.471-3.01-0.485-5.22c0,0-3.846,1.193-4.078,4.989
			c-0.109,1.723,0.667,3.271-0.632,3.359c-0.597,0.043-0.861-1.041-0.31-1.837c0,0-2.035,0.754-2.469,4.12
			c-0.029,0.231-0.04,1.386-0.044,1.978C69.631,41.687,69.709,41.618,69.79,41.551"/>
	</g>
</g>
</svg>
