<?xml version="1.0" encoding="utf-8"?>
<!-- Generator: Adobe Illustrator 17.0.0, SVG Export Plug-In . SVG Version: 6.00 Build 0)  -->
<!DOCTYPE svg PUBLIC "-//W3C//DTD SVG 1.1//EN" "http://www.w3.org/Graphics/SVG/1.1/DTD/svg11.dtd">
<svg version="1.1" id="Isolation_Mode" xmlns="http://www.w3.org/2000/svg" xmlns:xlink="http://www.w3.org/1999/xlink" x="0px"
	 y="0px" width="116.157px" height="77.392px" viewBox="0 0 116.157 77.392" enable-background="new 0 0 116.157 77.392"
	 xml:space="preserve">
<path fill="#D2572C" d="M116.157,77.392c-6.087-14.299-18.297-24.261-8.245-34.718c0,0-10.969,3.74-11.633,13.759
	c-0.662,10.033,6.688,14.929,1.886,18.45c-7.195,5.218-31.175-2.022-11.278-24.812c0,0-1.707-22.446-23.435-34.123
	c0,0,11.123,23.986,0,26.94C46.563,47.382,43.151,18.158,59.469,0c0,0-31.593,9.799-33.505,40.987
	c-0.898,14.158,5.479,26.87-5.191,27.598c-4.905,0.351-7.077-8.549-2.55-15.093c0,0-12.552,4.663-18.223,23.9H116.157z"/>
</svg>
