<?xml version="1.0" encoding="utf-8"?>
<!-- Generator: Adobe Illustrator 17.0.0, SVG Export Plug-In . SVG Version: 6.00 Build 0)  -->
<!DOCTYPE svg PUBLIC "-//W3C//DTD SVG 1.1//EN" "http://www.w3.org/Graphics/SVG/1.1/DTD/svg11.dtd">
<svg version="1.1" id="Camada_1" xmlns="http://www.w3.org/2000/svg" xmlns:xlink="http://www.w3.org/1999/xlink" x="0px" y="0px"
	 width="310px" height="148px" viewBox="213.504 126 310 148" enable-background="new 213.504 126 310 148" xml:space="preserve">
<g id="Camada_2">
</g>
<g id="Layer_1">
	<g>
		<g>
			<path fill="#010302" d="M508.105,206.152c-0.041-2.558-0.493-5.044-1.315-7.436c-1.51-4.448-4.339-8.485-8.309-11.784
				c-3.154-2.632-6.861-4.607-10.879-5.884c-3.389-1.06-6.984-1.618-10.671-1.618h-1.47c-0.513,0-1.048,0.006-1.561,0.031
				c-7.509,0.318-14.555,2.943-19.999,7.47c-2.845,2.364-5.095,5.107-6.708,8.117c-1.837,3.426-2.849,7.19-2.907,11.104
				c-0.03,2.301,0.843,4.469,2.45,6.101c0.92,0.935,1.998,1.612,3.2,2.045c-0.053,0.148-0.088,0.304-0.113,0.452
				c-0.032,0.159-0.041,0.324-0.041,0.494v2.28c0,0.103,0,0.205,0.01,0.307c-1.232,0.381-2.358,1.069-3.266,1.994
				c-0.262,0.267-0.508,0.544-0.735,0.853c-1.447,1.992-1.854,4.581-1.093,6.923l1.515,4.674c1.3,4.01,5.007,6.707,9.229,6.707
				h40.707c4.221,0,7.93-2.697,9.234-6.707l1.51-4.674c0.76-2.353,0.354-4.931-1.099-6.923c-0.155-0.206-0.32-0.411-0.499-0.601
				c-0.95-1.063-2.156-1.829-3.502-2.245c0.015-0.103,0.026-0.205,0.026-0.307v-2.28c0-0.088-0.011-0.17-0.021-0.262
				c-0.01-0.154-0.041-0.304-0.071-0.457c1.479-0.38,2.829-1.15,3.923-2.27C507.268,210.62,508.136,208.453,508.105,206.152
				 M451.139,199.578c2.866-7.108,10.02-12.552,18.869-14.164c1.756-0.321,3.584-0.493,5.454-0.493h1.47
				c5.31,0,10.251,1.364,14.359,3.692c5.869,3.333,10.004,8.664,11.051,14.817c0.154,0.919,0.252,1.858,0.273,2.815
				c0.025,1.69-1.362,3.071-3.061,3.071h-5.932h-26.675h-14.108c-1.7,0-3.086-1.381-3.061-3.071
				C449.814,203.907,450.296,201.673,451.139,199.578 M501.675,225.904l-1.521,4.675c-0.559,1.73-2.182,2.912-4.005,2.912h-40.707
				c-1.828,0-3.451-1.181-4.006-2.912l-1.51-4.675c-0.473-1.438,0.596-2.907,2.111-2.907h47.517
				C501.069,222.997,502.127,224.466,501.675,225.904"/>
			<path fill="#010302" d="M467.83,195.331c1.88,0,3.39-1.274,3.39-2.84c0-1.58-1.51-2.861-3.39-2.861
				c-0.627,0-1.202,0.148-1.705,0.397c-0.545,0.273-1.007,0.667-1.305,1.146c-0.231,0.398-0.38,0.835-0.38,1.318
				C464.44,194.057,465.96,195.331,467.83,195.331"/>
			<path fill="#010302" d="M483.854,195.181c1.869,0,3.389-1.274,3.389-2.855c0-1.571-1.52-2.845-3.389-2.845
				c-1.885,0-3.39,1.274-3.39,2.845C480.464,193.907,481.969,195.181,483.854,195.181"/>
			<path fill="#010302" d="M491.445,204.684c1.756,0,3.184-1.203,3.184-2.682c0-1.473-1.427-2.68-3.184-2.68
				c-1.767,0-3.19,1.207-3.19,2.68C488.255,203.481,489.677,204.684,491.445,204.684"/>
			<path fill="#010302" d="M460.064,205.495c1.87,0,3.391-1.274,3.391-2.851c0-1.577-1.521-2.851-3.391-2.851
				c-1.869,0-3.389,1.274-3.389,2.851C456.675,204.221,458.196,205.495,460.064,205.495"/>
			<path fill="#010302" d="M473.777,205.001c0.591,0.416,1.345,0.668,2.178,0.668c1.875,0,3.39-1.279,3.39-2.851
				c0-0.417-0.102-0.801-0.293-1.156c-0.529-0.996-1.72-1.695-3.096-1.695c-1.88,0-3.39,1.274-3.39,2.851
				C472.565,203.692,473.037,204.477,473.777,205.001"/>
			<path fill="#010302" d="M229.293,175.091c-0.616,0-0.96-0.342-0.894-1.025l1.166-8.273c0.067-0.683,0.544-1.025,1.227-1.025
				h4.376l3.965-28.442h-4.376c-0.611,0-0.955-0.343-0.889-1.027l1.166-8.272c0.067-0.686,0.478-1.026,1.16-1.026h23.795
				c7.93,0,13.538,4.786,13.538,12.238c0,5.128-2.665,9.026-6.43,11.761c4.104,1.847,6.086,5.195,6.086,9.366
				c0,10.733-6.63,15.726-19.823,15.726L229.293,175.091L229.293,175.091z M253.36,164.767c4.986,0,7.724-2.257,7.724-5.675
				c0-2.668-2.187-4.375-6.358-4.375h-6.086l-1.366,10.05L253.36,164.767L253.36,164.767z M254.248,145.966
				c3.965,0,6.763-2.051,6.763-5.403c0-2.802-2.187-4.306-5.741-4.306h-4.031l-1.366,9.709L254.248,145.966L254.248,145.966z"/>
			<path fill="#010302" d="M301.286,175.091c-2.12,0-3.149-1.231-2.87-3.351l0.611-3.965h-0.339c0,0-2.326,7.794-9.984,7.794
				c-7.385,0-11.072-5.126-10.185-12.1l1.639-12.855h-3.076c-0.683,0-0.956-0.341-0.888-1.025l1.027-7.111
				c0.066-0.683,0.545-1.027,1.16-1.027h11.212c2.122,0,3.149,1.232,2.871,3.351l-2.049,14.631
				c-0.478,3.418-0.067,5.947,2.598,5.947c3.965,0,5.537-6.289,5.609-6.836l1.16-7.932h-2.532c-0.683,0-0.955-0.341-0.889-1.025
				l1.027-7.111c0.067-0.683,0.544-1.027,1.16-1.027h12.921c0.616,0,0.961,0.344,0.888,1.027l-3.281,23.45h3.009
				c0.683,0,0.962,0.342,0.89,1.027l-1.028,7.111c-0.066,0.683-0.544,1.025-1.16,1.025L301.286,175.091L301.286,175.091z"/>
			<path fill="#010302" d="M316.252,175.091c-0.611,0-0.956-0.342-0.888-1.025l1.027-7.111c0.067-0.685,0.478-1.027,1.161-1.027
				h3.009l2.188-15.315h-3.01c-0.611,0-0.954-0.341-0.888-1.025l0.96-7.111c0.134-0.683,0.478-1.027,1.161-1.027h11.761
				c0.684,0,1.022,0.344,0.888,1.027l-0.955,6.974h0.338c0,0,4.104-8.479,14.36-8.479c0.684,0,1.16,0.547,1.094,1.23l-1.3,9.163
				c-0.072,0.683-0.683,1.23-1.366,1.23h-3.01c-4.376,0-9.301,3.281-9.845,7.248l-0.889,6.084h2.461
				c0.682,0,0.954,0.342,0.888,1.027l-1.028,7.111c-0.066,0.683-0.544,1.025-1.16,1.025H316.252z"/>
			<path fill="#010302" d="M346.266,185.894c-0.411-0.41-0.683-1.027-0.206-1.574l5.06-6.084c0.41-0.547,1.026-0.481,1.505-0.069
				c1.643,1.369,3.076,3.01,8.412,3.01c5.469,0,8.475-2.052,9.09-6.085l0.477-3.213c0,0-3.004,3.759-9.229,3.759
				c-8.478,0-13.054-5.948-13.054-14.358c0-13.06,8.063-20.373,18.046-20.373c6.497,0,8.751,3.76,8.751,3.76h0.139l0.272-2.188
				c0.066-0.683,0.477-1.028,1.16-1.028h11.761c0.683,0,1.027,0.345,0.889,1.028l-0.955,7.109c-0.139,0.684-0.617,1.026-1.233,1.026
				h-2.665l-3.421,24.477c-1.571,11.075-10.733,16.203-20.918,16.203C351.53,191.294,347.632,187.193,346.266,185.894
				 M372.453,156.905c0-4.171-2.121-6.153-5.131-6.153c-4.714,0-7.586,3.965-7.586,9.093c0,3.829,2.116,6.084,5.469,6.084
				C368.693,165.928,372.453,163.329,372.453,156.905"/>
			<path fill="#010302" d="M401.44,159.845c0.206,4.237,3.009,6.017,6.63,6.017c4.787,0,9.029-3.762,9.029-3.762
				c0.478-0.478,1.095-0.683,1.571-0.067l3.626,4.784c0.478,0.617,0.406,1.095-0.073,1.641c-0.682,0.822-6.423,7.111-16.614,7.111
				c-9.162,0-16.065-5.606-16.065-15.04c0-12.65,11.212-19.555,20.029-19.555c9.713,0,14.427,5.128,14.427,14.154
				c0,3.965-0.956,4.718-1.706,4.718L401.44,159.845L401.44,159.845z M413.406,153.69c0.139-1.641-1.094-3.829-4.581-3.829
				c-2.327,0-4.992,0.822-6.425,3.829H413.406z"/>
			<path fill="#010302" d="M426.055,175.091c-0.616,0-0.96-0.342-0.894-1.025l1.028-7.111c0.067-0.685,0.476-1.027,1.16-1.027h3.01
				l2.188-15.315h-3.01c-0.61,0-0.954-0.341-0.888-1.025l0.961-7.111c0.134-0.683,0.478-1.027,1.161-1.027h11.761
				c0.683,0,1.028,0.344,0.889,1.027l-0.961,6.974h0.345c0,0,4.102-8.479,14.359-8.479c0.682,0,1.16,0.547,1.094,1.23l-1.299,9.163
				c-0.071,0.683-0.683,1.23-1.371,1.23h-3.004c-4.377,0-9.301,3.281-9.846,7.248l-0.889,6.084h2.461
				c0.683,0,0.956,0.342,0.888,1.027l-1.027,7.111c-0.067,0.683-0.544,1.025-1.16,1.025H426.055z"/>
			<path fill="#FFFFFF" d="M299.443,238.291c-0.691,0-1.073-0.38-0.996-1.15l1.302-9.275c0.077-0.76,0.614-1.145,1.379-1.145h4.905
				l4.445-31.879h-4.905c-0.689,0-1.073-0.39-0.996-1.151l1.304-9.274c0.075-0.769,0.537-1.151,1.302-1.151h23.067
				c0.765,0,1.302,0.615,1.225,1.378l-1.225,8.811c-0.077,0.77-0.842,1.386-1.61,1.386h-4.596l-4.446,31.879h12.414l0.996-7.283
				c0.154-0.765,0.536-1.145,1.305-1.145h9.501c0.768,0,1.073,0.379,0.996,1.145l-2.452,17.477
				c-0.077,0.761-0.842,1.376-1.608,1.376L299.443,238.291L299.443,238.291z"/>
			<path fill="#FFFFFF" d="M375.155,238.291c-2.378,0-3.525-1.376-3.22-3.754l0.309-2.301h-0.154c0,0-4.217,6.743-13.49,6.743
				c-7.203,0-11.266-3.985-11.266-9.809c0-8.582,7.206-13.713,20.77-13.713h4.599v-0.082c0.075-2.373-1.456-3.904-4.982-3.904
				c-6.438,0-9.044,2.45-10.04,2.45c-0.383,0-0.843-0.077-1.074-0.539l-4.137-6.435c-0.308-0.457-0.308-0.92,0.229-1.3
				c0,0,6.286-5.598,17.552-5.598c9.881,0,16.855,4.365,15.248,16.168l-1.685,11.801h3.445c0.771,0,1.079,0.386,0.996,1.151
				l-1.15,7.97c-0.071,0.77-0.611,1.15-1.3,1.15L375.155,238.291L375.155,238.291L375.155,238.291z M371.857,221.662h-3.6
				c-4.982,0-6.974,1.151-6.974,3.831c0,1.839,1.762,2.68,4.367,2.68c2.607,0,4.522-1.453,5.671-2.757L371.857,221.662z"/>
			<path fill="#FFFFFF" d="M393.695,238.291c-0.688,0-1.073-0.38-0.996-1.15l6.133-43.603h-3.446c-0.694,0-1.079-0.384-0.925-1.151
				l1.079-7.97c0.148-0.768,0.534-1.151,1.299-1.151h14.56c0.769,0,1.15,0.382,0.996,1.151l-2.219,16.013
				c-0.155,1.15-1.15,4.601-1.15,4.601h0.303c0,0,2.839-4.982,10.574-4.982c9.506,0,14.719,6.667,14.719,16.095
				c0,14.637-9.121,22.68-20.312,22.68c-7.277,0-9.732-4.056-9.732-4.056h-0.226l-0.309,2.372c-0.082,0.77-0.616,1.15-1.305,1.15
				H393.695z M421.741,217.753c0-4.288-2.373-6.82-6.126-6.82c-3.91,0-8.126,2.912-8.126,10.112c0,4.679,2.449,6.902,5.747,6.902
				C418.603,227.948,421.741,223.501,421.741,217.753"/>
			<path fill="#FFFFFF" d="M453.902,181.281c5.445-4.527,12.49-7.153,19.999-7.47c0.513-0.026,1.048-0.031,1.561-0.031h1.47
				c3.687,0,7.282,0.557,10.671,1.618c4.017,1.276,7.724,3.25,10.879,5.883c0.69,0.574,1.333,1.177,1.953,1.794
				c0.141,0.002,0.226,0.005,0.23,0.009c0.144-0.573,0.491-5.314,0.486-6.072c-0.062-8.78-9.584-13.78-4.463-19.108
				c0,0-4.33,1.476-4.592,5.431c-0.261,3.96,2.64,5.893,0.744,7.282c-2.84,2.06-12.305-0.798-4.452-9.794
				c0,0-0.674-8.86-9.25-13.469c0,0,4.39,9.467,0,10.633c-6.666,1.774-8.013-9.761-1.572-16.928c0,0-12.47,3.868-13.225,16.178
				c-0.354,5.588,2.163,10.606-2.049,10.893c-1.936,0.139-2.793-3.374-1.007-5.957c0,0-6.6,2.445-8.007,13.358
				c-0.094,0.748-0.13,4.496-0.142,6.414C453.388,181.722,453.641,181.497,453.902,181.281"/>
		</g>
	</g>
	<g enable-background="new    ">
		<path d="M299.291,273.301l0.544-3.85c0.031-0.311,0.222-0.466,0.574-0.466h2.034l1.856-13.227h-2.034
			c-0.311,0-0.45-0.16-0.419-0.482l0.543-3.85c0.031-0.311,0.212-0.466,0.543-0.466h18.172c0.145,0,0.259,0.041,0.341,0.124
			c0.062,0.062,0.093,0.14,0.093,0.233c0,0.031-0.005,0.067-0.015,0.109l-1.025,7.343c-0.062,0.321-0.243,0.482-0.543,0.482h-3.897
			c-0.341,0-0.481-0.16-0.419-0.482l0.419-3.012h-6.148l-0.592,4.223h4.968c0.311,0,0.45,0.161,0.419,0.482l-0.544,3.85
			c-0.031,0.311-0.212,0.466-0.543,0.466h-4.974l-0.59,4.207h4.005c0.311,0,0.435,0.155,0.373,0.466l-0.543,3.85
			c-0.031,0.321-0.207,0.482-0.528,0.482h-11.651c-0.279,0-0.419-0.135-0.419-0.403
			C299.291,273.358,299.291,273.332,299.291,273.301z"/>
		<path d="M320.87,263.931c0-1.698,0.266-3.275,0.8-4.731c0.533-1.456,1.242-2.693,2.127-3.709c0.885-1.016,1.907-1.886,3.066-2.609
			c1.159-0.723,2.36-1.258,3.602-1.603c1.242-0.346,2.489-0.519,3.741-0.519c1.302,0,2.547,0.205,3.736,0.616
			c1.188,0.411,2.26,1.006,3.216,1.786c0.956,0.781,1.718,1.799,2.286,3.055c0.568,1.257,0.853,2.728,0.853,4.414
			s-0.232,3.228-0.698,4.625c-0.465,1.397-1.111,2.623-1.938,3.677c-0.827,1.054-1.796,1.965-2.908,2.733
			c-1.112,0.768-2.334,1.349-3.668,1.743c-1.334,0.394-2.719,0.591-4.156,0.591c-2.96,0-5.377-0.937-7.25-2.811
			C321.807,269.314,320.87,266.895,320.87,263.931z M326.987,263.389c0,1.686,0.427,3.076,1.281,4.171
			c0.854,1.095,1.985,1.642,3.392,1.642c1.79,0,3.325-0.771,4.603-2.315c1.278-1.544,1.917-3.405,1.917-5.584
			c0-1.741-0.437-3.134-1.312-4.179c-0.875-1.046-2.021-1.569-3.439-1.569c-1.791,0-3.312,0.742-4.564,2.225
			C327.613,259.265,326.987,261.134,326.987,263.389z"/>
		<path d="M345.757,263.931c0-1.698,0.266-3.275,0.8-4.731c0.533-1.456,1.242-2.693,2.127-3.709
			c0.885-1.016,1.907-1.886,3.066-2.609c1.159-0.723,2.36-1.258,3.602-1.603c1.242-0.346,2.489-0.519,3.741-0.519
			c1.302,0,2.547,0.205,3.736,0.616c1.188,0.411,2.26,1.006,3.216,1.786c0.956,0.781,1.718,1.799,2.286,3.055
			c0.568,1.257,0.853,2.728,0.853,4.414s-0.232,3.228-0.698,4.625c-0.465,1.397-1.111,2.623-1.938,3.677
			c-0.827,1.054-1.796,1.965-2.908,2.733c-1.112,0.768-2.334,1.349-3.668,1.743c-1.334,0.394-2.719,0.591-4.156,0.591
			c-2.96,0-5.377-0.937-7.25-2.811S345.757,266.895,345.757,263.931z M351.874,263.389c0,1.686,0.427,3.076,1.281,4.171
			c0.854,1.095,1.985,1.642,3.392,1.642c1.79,0,3.325-0.771,4.603-2.315c1.278-1.544,1.917-3.405,1.917-5.584
			c0-1.741-0.437-3.134-1.312-4.179c-0.875-1.046-2.021-1.569-3.439-1.569c-1.791,0-3.312,0.742-4.564,2.225
			C352.5,259.265,351.874,261.134,351.874,263.389z"/>
		<path d="M368.547,273.301l0.544-3.85c0.031-0.311,0.222-0.466,0.574-0.466h2.034l1.856-13.227h-2.034
			c-0.311,0-0.45-0.16-0.42-0.482l0.544-3.85c0.031-0.311,0.212-0.466,0.543-0.466h8.955c1.396,0,2.713,0.223,3.949,0.667
			c1.236,0.445,2.33,1.081,3.282,1.91c0.952,0.828,1.707,1.892,2.266,3.19c0.559,1.299,0.838,2.746,0.838,4.339
			c0,1.532-0.228,2.981-0.683,4.347c-0.455,1.366-1.071,2.549-1.848,3.547c-0.776,0.999-1.669,1.866-2.678,2.6
			c-1.009,0.735-2.075,1.289-3.198,1.661c-1.123,0.373-2.244,0.559-3.361,0.559h-10.744c-0.279,0-0.419-0.135-0.419-0.403
			C368.547,273.358,368.547,273.332,368.547,273.301z M377.311,268.985h0.825c1.194,0,2.227-0.127,3.098-0.38
			s1.633-0.667,2.281-1.242c0.649-0.575,1.137-1.361,1.464-2.36c0.327-0.999,0.491-2.207,0.491-3.625c0-3.747-1.962-5.62-5.884-5.62
			h-0.42L377.311,268.985z"/>
		<path d="M392.744,259.53l1.149-8.011c0.01-0.155,0.08-0.287,0.21-0.396c0.129-0.109,0.272-0.163,0.427-0.163h19.987
			c0.156,0,0.282,0.054,0.38,0.163c0.098,0.109,0.142,0.241,0.132,0.396l-1.149,8.011c-0.01,0.156-0.08,0.29-0.21,0.403
			c-0.129,0.114-0.272,0.171-0.427,0.171h-4.161c-0.155,0-0.285-0.057-0.388-0.171c-0.103-0.114-0.145-0.248-0.124-0.403
			l0.544-3.773h-2.36l-1.856,13.227h1.94c0.156,0,0.277,0.057,0.365,0.171c0.088,0.114,0.122,0.248,0.101,0.403l-0.513,3.648
			c-0.01,0.156-0.085,0.29-0.225,0.403c-0.14,0.114-0.287,0.171-0.442,0.171h-9.477c-0.156,0-0.279-0.057-0.373-0.171
			c-0.093-0.114-0.129-0.248-0.109-0.403l0.512-3.648c0.01-0.156,0.086-0.29,0.225-0.403c0.14-0.114,0.287-0.171,0.442-0.171h1.941
			l1.856-13.227h-2.546l-0.544,3.773c-0.01,0.156-0.08,0.29-0.21,0.403c-0.129,0.114-0.272,0.171-0.427,0.171h-4.161
			c-0.155,0-0.285-0.057-0.388-0.171C392.765,259.82,392.723,259.685,392.744,259.53z"/>
		<path d="M413.523,273.301l0.544-3.85c0.031-0.311,0.222-0.466,0.574-0.466h2.034l1.855-13.227h-2.034
			c-0.31,0-0.45-0.16-0.419-0.482l0.543-3.85c0.031-0.311,0.212-0.466,0.544-0.466h10.925c2.12,0,3.817,0.618,5.09,1.855
			c1.273,1.237,1.909,2.844,1.909,4.821c0,1.607-0.38,3.011-1.142,4.21c-0.761,1.2-1.824,2.155-3.19,2.864
			c0.414,0.521,0.703,0.98,0.869,1.379l1.273,2.895h2.189c0.259,0,0.388,0.108,0.388,0.326c0,0.041-0.005,0.088-0.016,0.14
			l-0.529,3.85c-0.031,0.321-0.212,0.482-0.544,0.482h-4.65c-0.56,0-1.019-0.186-1.376-0.559s-0.656-0.916-0.894-1.63l-1.524-4.41
			c-0.29-0.868-0.866-1.303-1.726-1.303h-1.493l-0.436,3.105h2.562c0.321,0,0.45,0.155,0.388,0.466l-0.544,3.85
			c-0.031,0.321-0.212,0.482-0.544,0.482h-10.207c-0.279,0-0.42-0.135-0.42-0.403C413.523,273.358,413.523,273.332,413.523,273.301z
			 M423.353,261.378h1.909c1.427,0,2.461-0.243,3.103-0.73c0.641-0.487,0.962-1.258,0.962-2.313c0-1.718-1.092-2.577-3.276-2.577
			h-1.91L423.353,261.378z"/>
		<path d="M437.214,255.277l0.543-3.85c0.031-0.311,0.222-0.466,0.574-0.466h9.688c0.321,0,0.45,0.156,0.388,0.466l-0.544,3.85
			c-0.031,0.321-0.212,0.482-0.543,0.482h-2.003l-1.366,9.959c-0.021,0.31-0.031,0.626-0.031,0.947c0,0.321,0.07,0.632,0.21,0.932
			c0.14,0.3,0.319,0.57,0.537,0.811c0.218,0.241,0.539,0.434,0.964,0.579c0.425,0.144,0.928,0.217,1.509,0.217
			c1.089,0,1.996-0.354,2.722-1.062c0.726-0.708,1.146-1.571,1.26-2.586l1.366-9.796h-2.034c-0.31,0-0.45-0.16-0.419-0.482
			l0.544-3.85c0.031-0.311,0.222-0.466,0.574-0.466h9.679c0.259,0,0.388,0.109,0.388,0.326c0,0.041-0.005,0.088-0.015,0.14
			l-0.528,3.85c-0.031,0.321-0.212,0.482-0.543,0.482h-2.034l-1.324,9.499c-0.403,2.826-1.538,4.99-3.406,6.491
			c-1.867,1.501-4.186,2.251-6.958,2.251c-1.365,0-2.586-0.174-3.661-0.521c-1.076-0.347-1.978-0.859-2.707-1.534
			c-0.729-0.675-1.243-1.541-1.543-2.599c-0.186-0.636-0.279-1.326-0.279-2.07c0-0.535,0.041-1.098,0.124-1.687l1.331-9.83h-2.043
			c-0.281,0-0.421-0.135-0.421-0.403C437.214,255.333,437.214,255.308,437.214,255.277z"/>
		<path d="M460.672,263.924c0-1.697,0.244-3.273,0.733-4.727c0.489-1.454,1.148-2.691,1.977-3.71
			c0.829-1.019,1.79-1.889,2.884-2.608c1.094-0.719,2.251-1.252,3.472-1.599c1.221-0.347,2.463-0.52,3.726-0.52
			c2.691,0,4.513,0.787,5.465,2.36l0.124-1.692c0.031-0.311,0.222-0.466,0.574-0.466h4.099c0.279,0,0.419,0.129,0.419,0.388
			c0,0.021,0,0.047,0,0.078l-1.149,8.042c-0.031,0.321-0.212,0.482-0.544,0.482h-4.735c-0.3,0-0.435-0.16-0.403-0.482l0.031-0.311
			c0.01-0.062,0.016-0.124,0.016-0.186c0-0.621-0.342-1.231-1.025-1.832c-0.745-0.662-1.811-0.998-3.198-1.009
			c-1.842,0-3.361,0.645-4.557,1.933c-1.195,1.288-1.793,2.988-1.793,5.1c0,1.563,0.476,2.838,1.428,3.827
			c0.952,0.988,2.106,1.483,3.462,1.483c3.043,0,5.361-1.138,6.955-3.415c0.041-0.052,0.068-0.088,0.078-0.109
			c0.196-0.29,0.409-0.337,0.636-0.14l2.919,2.204c0.186,0.166,0.197,0.399,0.031,0.699c-0.621,1.045-1.325,1.946-2.111,2.701
			c-2.432,2.339-5.527,3.534-9.284,3.586c-0.083,0-0.16,0-0.233,0c-1.418,0-2.736-0.227-3.954-0.683s-2.275-1.102-3.171-1.941
			c-0.896-0.838-1.599-1.897-2.109-3.175C460.927,266.923,460.672,265.497,460.672,263.924z"/>
		<path d="M483.059,273.301l0.544-3.85c0.031-0.311,0.222-0.466,0.574-0.466h2.034l1.856-13.227h-2.034
			c-0.311,0-0.45-0.16-0.42-0.482l0.544-3.85c0.031-0.311,0.212-0.466,0.544-0.466h8.919c0.311,0,0.45,0.156,0.419,0.466
			l-0.543,3.85c-0.031,0.321-0.212,0.482-0.544,0.482h-1.273l-0.788,5.62h1.149c1.852,0,3.216-0.45,4.091-1.351
			c0.874-0.9,1.451-2.324,1.731-4.269h-2.034c-0.31,0-0.45-0.16-0.419-0.482l0.543-3.85c0.031-0.311,0.212-0.466,0.544-0.466h9.688
			c0.289,0,0.435,0.109,0.435,0.326c0,0.041-0.005,0.088-0.015,0.14l-0.544,3.85c-0.031,0.321-0.212,0.482-0.543,0.482h-2.034
			c-0.507,3.578-1.925,6.242-4.254,7.989c0.321,0.195,0.582,0.47,0.784,0.825c0.202,0.354,0.396,0.845,0.582,1.471l0.854,2.943
			h2.189c0.321,0,0.45,0.155,0.388,0.466l-0.543,3.85c-0.031,0.321-0.212,0.482-0.544,0.482h-4.642c-1.045,0-1.796-0.73-2.251-2.189
			l-1.49-4.728c-0.197-0.656-0.709-0.985-1.537-0.985h-2.759l-0.435,3.105h2.825c0.311,0,0.435,0.155,0.373,0.466l-0.528,3.85
			c-0.031,0.321-0.212,0.482-0.543,0.482h-10.471c-0.279,0-0.42-0.135-0.42-0.403C483.059,273.358,483.059,273.332,483.059,273.301z
			"/>
	</g>
</g>
</svg>
