<?xml version="1.0" encoding="utf-8"?>
<!-- Generator: Adobe Illustrator 17.0.0, SVG Export Plug-In . SVG Version: 6.00 Build 0)  -->
<!DOCTYPE svg PUBLIC "-//W3C//DTD SVG 1.1//EN" "http://www.w3.org/Graphics/SVG/1.1/DTD/svg11.dtd">
<svg version="1.1" id="Layer_1" xmlns="http://www.w3.org/2000/svg" xmlns:xlink="http://www.w3.org/1999/xlink" x="0px" y="0px"
	 width="310px" height="148px" viewBox="0 0 310 148" enable-background="new 0 0 310 148" xml:space="preserve">
<g>
	<g>
		<g>
			<path fill="#FFFFFF" d="M295.195,80.345c-0.041-2.564-0.494-5.056-1.318-7.454c-1.513-4.459-4.35-8.506-8.329-11.813
				c-3.162-2.638-6.878-4.618-10.905-5.898c-3.398-1.063-7.001-1.622-10.697-1.622h-1.473c-0.514,0-1.051,0.005-1.565,0.031
				c-7.527,0.319-14.59,2.95-20.048,7.488c-2.852,2.37-5.107,5.12-6.724,8.137c-1.842,3.434-2.856,7.207-2.914,11.13
				c-0.03,2.306,0.845,4.479,2.456,6.116c0.922,0.938,2.002,1.616,3.208,2.049c-0.053,0.149-0.088,0.304-0.113,0.452
				c-0.032,0.16-0.042,0.325-0.042,0.495v2.286c0,0.103,0,0.205,0.01,0.308c-1.235,0.381-2.364,1.071-3.274,1.998
				c-0.263,0.267-0.51,0.545-0.737,0.855c-1.451,1.997-1.858,4.591-1.096,6.94l1.519,4.685c1.303,4.02,5.019,6.723,9.251,6.723
				h40.805c4.231,0,7.949-2.703,9.256-6.723l1.514-4.685c0.762-2.359,0.355-4.943-1.102-6.94c-0.155-0.207-0.321-0.412-0.5-0.603
				c-0.952-1.066-2.161-1.833-3.511-2.25c0.015-0.103,0.026-0.206,0.026-0.308v-2.286c0-0.088-0.011-0.17-0.021-0.263
				c-0.01-0.154-0.042-0.304-0.072-0.459c1.482-0.381,2.836-1.153,3.933-2.275C294.357,84.825,295.226,82.652,295.195,80.345
				 M238.091,73.756c2.873-7.125,10.044-12.582,18.915-14.199c1.761-0.321,3.593-0.494,5.467-0.494h1.473
				c5.323,0,10.275,1.367,14.394,3.701c5.883,3.341,10.028,8.685,11.078,14.853c0.154,0.922,0.252,1.863,0.274,2.821
				c0.025,1.694-1.365,3.078-3.069,3.078h-5.947h-26.74h-14.142c-1.704,0-3.094-1.384-3.068-3.078
				C236.763,78.096,237.247,75.856,238.091,73.756 M288.75,100.145l-1.525,4.686c-0.56,1.735-2.187,2.919-4.015,2.919h-40.805
				c-1.832,0-3.459-1.184-4.015-2.919l-1.514-4.686c-0.474-1.441,0.597-2.914,2.116-2.914h47.632
				C288.143,97.231,289.203,98.704,288.75,100.145"/>
			<path fill="#FFFFFF" d="M254.823,69.498c1.884,0,3.398-1.277,3.398-2.847c0-1.584-1.514-2.868-3.398-2.868
				c-0.628,0-1.205,0.149-1.709,0.398c-0.546,0.274-1.009,0.668-1.308,1.149c-0.231,0.399-0.381,0.837-0.381,1.321
				C251.425,68.221,252.949,69.498,254.823,69.498"/>
			<path fill="#FFFFFF" d="M270.886,69.348c1.873,0,3.397-1.277,3.397-2.862c0-1.575-1.524-2.852-3.397-2.852
				c-1.89,0-3.398,1.277-3.398,2.852C267.488,68.071,268.996,69.348,270.886,69.348"/>
			<path fill="#FFFFFF" d="M278.495,78.874c1.761,0,3.192-1.206,3.192-2.688c0-1.477-1.431-2.687-3.192-2.687
				c-1.771,0-3.197,1.21-3.197,2.687C275.297,77.668,276.724,78.874,278.495,78.874"/>
			<path fill="#FFFFFF" d="M247.038,79.687c1.874,0,3.399-1.277,3.399-2.857c0-1.581-1.525-2.858-3.399-2.858
				c-1.873,0-3.397,1.277-3.397,2.858C243.641,78.41,245.165,79.687,247.038,79.687"/>
			<path fill="#FFFFFF" d="M260.785,79.192c0.592,0.417,1.348,0.67,2.183,0.67c1.879,0,3.398-1.282,3.398-2.857
				c0-0.418-0.102-0.803-0.294-1.158c-0.53-0.998-1.724-1.699-3.104-1.699c-1.884,0-3.398,1.277-3.398,2.858
				C259.57,77.88,260.043,78.667,260.785,79.192"/>
			<path fill="#FFFFFF" d="M15.708,49.209c-0.617,0-0.963-0.343-0.896-1.028l1.169-8.293c0.067-0.685,0.545-1.027,1.23-1.027h4.386
				l3.974-28.511h-4.386c-0.612,0-0.957-0.344-0.891-1.029l1.169-8.292C21.53,0.342,21.943,0,22.627,0h23.852
				c7.949,0,13.57,4.797,13.57,12.268c0,5.14-2.671,9.048-6.446,11.789c4.114,1.851,6.101,5.207,6.101,9.388
				c0,10.759-6.646,15.764-19.871,15.764H15.708z M39.833,38.861c4.998,0,7.742-2.262,7.742-5.689c0-2.674-2.193-4.386-6.373-4.386
				h-6.1l-1.37,10.075H39.833z M40.723,20.013c3.975,0,6.78-2.056,6.78-5.416c0-2.809-2.193-4.316-5.755-4.316h-4.041l-1.369,9.733
				H40.723z"/>
			<path fill="#FFFFFF" d="M87.876,49.209c-2.126,0-3.156-1.234-2.877-3.359l0.613-3.975h-0.34c0,0-2.332,7.813-10.008,7.813
				c-7.403,0-11.099-5.138-10.209-12.129l1.643-12.886h-3.084c-0.685,0-0.958-0.342-0.891-1.027l1.03-7.128
				c0.066-0.685,0.546-1.029,1.163-1.029h11.239c2.127,0,3.156,1.235,2.878,3.359l-2.054,14.667
				c-0.479,3.427-0.067,5.962,2.604,5.962c3.975,0,5.551-6.304,5.623-6.852l1.163-7.952H83.83c-0.685,0-0.958-0.342-0.891-1.027
				l1.03-7.128c0.067-0.685,0.546-1.029,1.163-1.029h12.953c0.617,0,0.963,0.344,0.89,1.029l-3.289,23.507h3.016
				c0.685,0,0.964,0.343,0.892,1.029l-1.031,7.128c-0.066,0.685-0.545,1.027-1.163,1.027H87.876z"/>
			<path fill="#FFFFFF" d="M102.878,49.209c-0.613,0-0.958-0.343-0.89-1.027l1.029-7.128c0.067-0.687,0.479-1.029,1.164-1.029h3.017
				l2.193-15.352h-3.017c-0.613,0-0.957-0.342-0.891-1.027l0.963-7.128c0.134-0.685,0.479-1.029,1.164-1.029h11.789
				c0.685,0,1.025,0.344,0.89,1.029l-0.957,6.991h0.339c0,0,4.114-8.5,14.395-8.5c0.685,0,1.163,0.548,1.097,1.233l-1.303,9.185
				c-0.072,0.685-0.684,1.233-1.369,1.233h-3.017c-4.386,0-9.324,3.289-9.869,7.266l-0.891,6.098h2.467
				c0.684,0,0.957,0.343,0.891,1.029l-1.031,7.128c-0.067,0.685-0.545,1.027-1.163,1.027H102.878z"/>
			<path fill="#FFFFFF" d="M132.964,60.039c-0.412-0.412-0.685-1.03-0.206-1.578l5.072-6.099c0.411-0.548,1.029-0.482,1.508-0.07
				c1.647,1.372,3.084,3.017,8.433,3.017c5.483,0,8.495-2.057,9.112-6.1l0.478-3.221c0,0-3.011,3.768-9.252,3.768
				c-8.499,0-13.086-5.962-13.086-14.392c0-13.092,8.082-20.423,18.09-20.423c6.513,0,8.773,3.769,8.773,3.769h0.139l0.273-2.193
				c0.066-0.685,0.478-1.03,1.163-1.03h11.79c0.685,0,1.029,0.345,0.891,1.03l-0.957,7.127c-0.139,0.686-0.618,1.028-1.236,1.028
				h-2.671l-3.429,24.537c-1.575,11.102-10.759,16.243-20.969,16.243C138.241,65.452,134.333,61.341,132.964,60.039 M159.215,30.979
				c0-4.181-2.126-6.168-5.143-6.168c-4.726,0-7.604,3.975-7.604,9.115c0,3.838,2.121,6.099,5.483,6.099
				C155.446,40.025,159.215,37.419,159.215,30.979"/>
			<path fill="#FFFFFF" d="M188.272,33.926c0.207,4.247,3.017,6.031,6.646,6.031c4.799,0,9.05-3.771,9.05-3.771
				c0.479-0.479,1.098-0.684,1.575-0.067l3.635,4.796c0.48,0.618,0.407,1.097-0.073,1.645c-0.684,0.824-6.439,7.128-16.654,7.128
				c-9.185,0-16.104-5.619-16.104-15.077c0-12.68,11.239-19.602,20.078-19.602c9.736,0,14.462,5.141,14.462,14.188
				c0,3.975-0.958,4.729-1.71,4.729H188.272z M200.267,27.756c0.139-1.645-1.096-3.838-4.592-3.838
				c-2.333,0-5.004,0.824-6.441,3.838H200.267z"/>
			<path fill="#FFFFFF" d="M212.947,49.209c-0.617,0-0.962-0.343-0.896-1.027l1.031-7.128c0.067-0.687,0.478-1.029,1.162-1.029
				h3.017l2.194-15.352h-3.018c-0.612,0-0.956-0.342-0.89-1.027l0.963-7.128c0.134-0.685,0.48-1.029,1.164-1.029h11.789
				c0.685,0,1.03,0.344,0.891,1.029l-0.963,6.991h0.345c0,0,4.112-8.5,14.394-8.5c0.684,0,1.163,0.548,1.096,1.233l-1.303,9.185
				c-0.072,0.685-0.684,1.233-1.374,1.233h-3.011c-4.387,0-9.324,3.289-9.87,7.266l-0.891,6.098h2.467
				c0.684,0,0.958,0.343,0.89,1.029l-1.029,7.128c-0.067,0.685-0.546,1.027-1.163,1.027H212.947z"/>
			<path fill="#F05623" d="M86.027,112.563c-0.693,0-1.076-0.381-0.998-1.153l1.305-9.298c0.077-0.762,0.615-1.148,1.382-1.148
				h4.917l4.456-31.956h-4.917c-0.69,0-1.076-0.391-0.998-1.153l1.307-9.297c0.075-0.77,0.538-1.153,1.305-1.153h23.123
				c0.767,0,1.305,0.616,1.228,1.382l-1.228,8.833c-0.077,0.772-0.844,1.389-1.614,1.389h-4.608l-4.456,31.956h12.444l0.998-7.3
				c0.154-0.767,0.538-1.148,1.308-1.148h9.524c0.77,0,1.076,0.38,0.999,1.148l-2.458,17.519c-0.077,0.762-0.844,1.379-1.612,1.379
				H86.027z"/>
			<path fill="#F05623" d="M161.923,112.563c-2.384,0-3.534-1.379-3.228-3.763l0.31-2.306h-0.154c0,0-4.227,6.76-13.522,6.76
				c-7.22,0-11.293-3.995-11.293-9.833c0-8.603,7.223-13.746,20.82-13.746h4.61v-0.082c0.075-2.379-1.459-3.913-4.994-3.913
				c-6.454,0-9.066,2.456-10.065,2.456c-0.384,0-0.845-0.077-1.076-0.541l-4.147-6.45c-0.309-0.459-0.309-0.922,0.229-1.303
				c0,0,6.301-5.612,17.594-5.612c9.905,0,16.896,4.376,15.285,16.207l-1.689,11.83h3.454c0.773,0,1.082,0.387,0.999,1.154
				l-1.153,7.99c-0.071,0.772-0.613,1.153-1.303,1.153H161.923z M158.618,95.894h-3.609c-4.994,0-6.992,1.153-6.992,3.84
				c0,1.843,1.766,2.687,4.378,2.687c2.613,0,4.533-1.456,5.684-2.764L158.618,95.894z"/>
			<path fill="#F05623" d="M180.508,112.563c-0.69,0-1.076-0.381-0.998-1.153l6.147-43.709h-3.454c-0.695,0-1.082-0.385-0.927-1.153
				l1.081-7.989c0.149-0.77,0.535-1.153,1.302-1.153h14.596c0.771,0,1.153,0.383,0.998,1.153l-2.224,16.052
				c-0.155,1.153-1.153,4.612-1.153,4.612h0.304c0,0,2.846-4.994,10.6-4.994c9.529,0,14.755,6.683,14.755,16.135
				c0,14.672-9.143,22.735-20.361,22.735c-7.295,0-9.755-4.066-9.755-4.066h-0.226l-0.309,2.377
				c-0.082,0.772-0.617,1.153-1.308,1.153H180.508z M208.622,91.975c0-4.298-2.379-6.836-6.141-6.836
				c-3.919,0-8.146,2.919-8.146,10.137c0,4.69,2.455,6.919,5.761,6.919C205.477,102.194,208.622,97.736,208.622,91.975"/>
			<path fill="#F05623" d="M240.861,55.414c5.458-4.538,12.52-7.17,20.048-7.488c0.514-0.026,1.051-0.031,1.565-0.031h1.473
				c3.695,0,7.299,0.558,10.697,1.622c4.027,1.279,7.743,3.258,10.905,5.897c0.692,0.575,1.336,1.18,1.958,1.798
				c0.141,0.002,0.226,0.005,0.231,0.009c0.145-0.574,0.492-5.327,0.488-6.086c-0.062-8.801-9.608-13.813-4.474-19.154
				c0,0-4.34,1.48-4.603,5.444c-0.262,3.97,2.646,5.907,0.746,7.3c-2.847,2.065-12.335-0.8-4.462-9.817
				c0,0-0.675-8.881-9.272-13.501c0,0,4.401,9.491,0,10.659c-6.682,1.779-8.032-9.784-1.576-16.969c0,0-12.5,3.877-13.257,16.217
				c-0.355,5.602,2.168,10.631-2.054,10.92c-1.941,0.139-2.8-3.383-1.009-5.972c0,0-6.615,2.451-8.027,13.391
				c-0.095,0.75-0.131,4.507-0.142,6.429C240.346,55.856,240.599,55.631,240.861,55.414"/>
		</g>
	</g>
	<g>
		<path fill="#FFFFFF" d="M85.753,147.339l0.401-2.858c0.031-0.297,0.201-0.445,0.509-0.445h2.175l2.132-15.179h-2.19
			c-0.278,0-0.401-0.144-0.37-0.432l0.401-2.885c0.031-0.288,0.201-0.432,0.509-0.432h17.536c0.133,0,0.236,0.041,0.309,0.124
			c0.051,0.051,0.077,0.118,0.077,0.201c0,0.031-0.005,0.067-0.015,0.108l-0.879,6.387c-0.062,0.298-0.232,0.447-0.51,0.447h-2.968
			c-0.145,0-0.253-0.041-0.325-0.122c-0.072-0.082-0.093-0.189-0.062-0.322l0.437-3.073h-7.539l-0.804,5.723h6.232
			c0.278,0,0.401,0.148,0.37,0.442l-0.401,2.865c-0.01,0.132-0.067,0.239-0.17,0.32c-0.103,0.082-0.216,0.122-0.339,0.122h-6.219
			l-0.802,5.708h7.516l0.43-3.027c0.061-0.306,0.23-0.459,0.506-0.459h2.992c0.276,0,0.399,0.15,0.368,0.448l-0.9,6.338
			c-0.01,0.134-0.067,0.243-0.17,0.325c-0.103,0.083-0.216,0.124-0.339,0.124H86.124c-0.247,0-0.37-0.117-0.37-0.353
			C85.753,147.4,85.753,147.369,85.753,147.339z"/>
		<path fill="#FFFFFF" d="M106.255,147.339l0.401-2.858c0.031-0.297,0.201-0.445,0.509-0.445h2.376l7.173-7.613l-5.06-7.566h-2.376
			c-0.278,0-0.401-0.144-0.37-0.432l0.401-2.885c0.031-0.288,0.201-0.432,0.509-0.432h8.793c0.278,0,0.401,0.144,0.37,0.432
			l-0.417,2.885c-0.031,0.288-0.195,0.432-0.494,0.432h-1.712l3.286,5.127l4.705-5.127h-1.604c-0.288,0-0.417-0.144-0.386-0.432
			l0.417-2.885c0.031-0.288,0.201-0.432,0.509-0.432h8.777c0.133,0,0.241,0.041,0.324,0.124c0.051,0.051,0.077,0.118,0.077,0.201
			c0,0.031-0.005,0.067-0.015,0.108l-0.417,2.885c-0.031,0.288-0.201,0.432-0.509,0.432h-2.437l-7.158,7.566l4.983,7.613h2.406
			c0.278,0,0.401,0.148,0.37,0.445l-0.401,2.858c-0.01,0.133-0.067,0.241-0.17,0.323c-0.103,0.082-0.216,0.123-0.339,0.123h-8.777
			c-0.288,0-0.417-0.148-0.386-0.446l0.417-2.858c0.031-0.297,0.195-0.445,0.494-0.445h1.681l-3.224-5.188l-4.705,5.188h1.681
			c0.278,0,0.401,0.148,0.37,0.445l-0.417,2.858c-0.01,0.133-0.064,0.241-0.162,0.323c-0.098,0.082-0.208,0.123-0.332,0.123h-8.793
			c-0.247,0-0.37-0.117-0.37-0.353C106.255,147.4,106.255,147.369,106.255,147.339z"/>
		<path fill="#FFFFFF" d="M131.307,147.339l0.401-2.858c0.031-0.297,0.201-0.445,0.509-0.445h2.175l2.132-15.179h-2.19
			c-0.278,0-0.401-0.144-0.37-0.432l0.401-2.885c0.031-0.288,0.201-0.432,0.509-0.432h10.395c2.046,0,3.688,0.622,4.927,1.867
			c1.239,1.245,1.859,2.854,1.859,4.828c0,2.488-0.851,4.483-2.553,5.985c-1.702,1.502-3.946,2.253-6.732,2.253h-3.409l-0.561,3.996
			h2.777c0.298,0,0.417,0.148,0.355,0.445l-0.417,2.858c-0.031,0.297-0.195,0.446-0.494,0.446h-9.344
			c-0.247,0-0.37-0.117-0.37-0.353C131.307,147.4,131.307,147.369,131.307,147.339z M139.858,136.508h2.935
			c3.182,0,4.773-1.435,4.773-4.304c0-1.09-0.334-1.92-1.003-2.491c-0.669-0.571-1.553-0.856-2.653-0.856h-2.977L139.858,136.508z"
			/>
		<path fill="#FFFFFF" d="M151.206,147.339l0.401-2.858c0.031-0.297,0.201-0.445,0.509-0.445h2.175l2.132-15.179h-2.19
			c-0.278,0-0.401-0.144-0.37-0.432l0.401-2.885c0.031-0.288,0.201-0.432,0.509-0.432h17.536c0.133,0,0.236,0.041,0.308,0.124
			c0.051,0.051,0.077,0.118,0.077,0.201c0,0.031-0.005,0.067-0.015,0.108l-0.879,6.387c-0.062,0.298-0.233,0.447-0.51,0.447h-2.969
			c-0.145,0-0.253-0.041-0.325-0.122c-0.073-0.082-0.093-0.189-0.062-0.322l0.437-3.073h-7.539l-0.804,5.723h6.232
			c0.277,0,0.401,0.148,0.37,0.442l-0.401,2.865c-0.01,0.132-0.067,0.239-0.169,0.32c-0.104,0.082-0.216,0.122-0.34,0.122h-6.219
			l-0.801,5.708h7.516l0.43-3.027c0.061-0.306,0.23-0.459,0.506-0.459h2.992c0.277,0,0.4,0.15,0.369,0.448l-0.9,6.338
			c-0.01,0.134-0.067,0.243-0.17,0.325c-0.103,0.083-0.216,0.124-0.338,0.124h-17.528c-0.247,0-0.37-0.117-0.37-0.353
			C151.206,147.4,151.206,147.369,151.206,147.339z"/>
		<path fill="#FFFFFF" d="M171.8,147.339l0.401-2.858c0.031-0.297,0.201-0.445,0.509-0.445h2.175l2.132-15.179h-2.19
			c-0.278,0-0.401-0.144-0.37-0.432l0.401-2.885c0.031-0.288,0.201-0.432,0.509-0.432h10.387c2.075,0,3.734,0.568,4.977,1.705
			c1.243,1.136,1.864,2.672,1.864,4.605c0,1.703-0.418,3.158-1.253,4.365c-0.835,1.207-2.024,2.11-3.567,2.708
			c0.401,0.401,0.73,0.966,0.987,1.694l1.542,3.852h2.058c0.268,0,0.402,0.102,0.402,0.307c0,0.041-0.005,0.087-0.015,0.138
			l-0.417,2.858c-0.031,0.297-0.201,0.446-0.51,0.446h-3.834c-0.515,0-0.925-0.158-1.229-0.476
			c-0.304-0.317-0.559-0.789-0.765-1.413l-1.794-5.103c-0.134-0.43-0.327-0.774-0.58-1.03c-0.253-0.256-0.631-0.384-1.136-0.384
			h-2.536l-0.654,4.659h2.653c0.287,0,0.416,0.148,0.386,0.445l-0.417,2.858c-0.01,0.133-0.067,0.241-0.17,0.323
			c-0.103,0.082-0.216,0.123-0.34,0.123h-9.237c-0.247,0-0.37-0.117-0.37-0.353C171.8,147.4,171.8,147.369,171.8,147.339z
			 M180.445,135.844h2.78c1.637,0,2.86-0.308,3.668-0.925c0.808-0.617,1.212-1.604,1.212-2.962c0-2.067-1.296-3.1-3.887-3.1h-2.792
			L180.445,135.844z"/>
		<path fill="#FFFFFF" d="M194.153,147.339l0.401-2.858c0.031-0.297,0.201-0.445,0.509-0.445h2.175l2.132-15.179h-2.19
			c-0.278,0-0.401-0.144-0.37-0.432l0.401-2.885c0.031-0.288,0.201-0.432,0.509-0.432h8.79c0.257,0,0.386,0.098,0.386,0.293
			c0,0.041-0.005,0.087-0.015,0.139l-0.417,2.885c-0.031,0.288-0.196,0.432-0.493,0.432h-2.191l-2.132,15.179h2.19
			c0.277,0,0.401,0.148,0.37,0.445l-0.417,2.858c-0.01,0.133-0.065,0.241-0.162,0.323c-0.098,0.082-0.208,0.123-0.332,0.123h-8.774
			c-0.247,0-0.37-0.117-0.37-0.353C194.153,147.4,194.153,147.369,194.153,147.339z"/>
		<path fill="#FFFFFF" d="M205.938,147.339l0.401-2.858c0.031-0.297,0.201-0.445,0.509-0.445h2.175l2.132-15.179h-2.19
			c-0.278,0-0.401-0.144-0.37-0.432l0.401-2.885c0.031-0.288,0.201-0.432,0.509-0.432h17.536c0.133,0,0.236,0.041,0.308,0.124
			c0.051,0.051,0.077,0.118,0.077,0.201c0,0.031-0.005,0.067-0.015,0.108l-0.879,6.387c-0.062,0.298-0.232,0.447-0.51,0.447h-2.969
			c-0.145,0-0.253-0.041-0.325-0.122c-0.072-0.082-0.093-0.189-0.062-0.322l0.437-3.073h-7.539l-0.804,5.723h6.232
			c0.277,0,0.401,0.148,0.37,0.442l-0.401,2.865c-0.01,0.132-0.067,0.239-0.17,0.32c-0.103,0.082-0.216,0.122-0.34,0.122h-6.219
			l-0.801,5.708h7.516l0.43-3.027c0.061-0.306,0.23-0.459,0.507-0.459h2.992c0.276,0,0.399,0.15,0.368,0.448l-0.9,6.338
			c-0.01,0.134-0.067,0.243-0.17,0.325c-0.103,0.083-0.216,0.124-0.339,0.124h-17.528c-0.247,0-0.37-0.117-0.37-0.353
			C205.938,147.4,205.938,147.369,205.938,147.339z"/>
		<path fill="#FFFFFF" d="M226.532,147.339l0.401-2.858c0.031-0.297,0.201-0.445,0.509-0.445h2.175l2.141-15.179h-2.19
			c-0.277,0-0.401-0.144-0.37-0.432l0.401-2.885c0.031-0.288,0.201-0.432,0.509-0.432h5.534c0.339,0,0.629,0.078,0.871,0.232
			c0.241,0.154,0.418,0.319,0.531,0.494c0.113,0.175,0.242,0.427,0.386,0.757l5.023,10.374c0.206,0.432,0.413,0.914,0.624,1.444
			c0.211,0.53,0.372,0.955,0.485,1.274l0.154,0.463l0.093-0.012l1.573-11.276h-2.175c-0.278,0-0.401-0.144-0.371-0.432l0.401-2.885
			c0.031-0.288,0.201-0.432,0.509-0.432h8.727c0.267,0,0.401,0.103,0.401,0.309c0,0.041-0.005,0.082-0.015,0.123l-0.416,2.885
			c-0.031,0.288-0.201,0.432-0.509,0.432h-2.175l-2.609,18.475c-0.031,0.302-0.2,0.452-0.507,0.452h-2.952
			c-0.461,0-0.815-0.103-1.061-0.308c-0.246-0.206-0.492-0.534-0.738-0.987l-5.352-10.764c-0.164-0.319-0.323-0.668-0.476-1.049
			c-0.154-0.38-0.267-0.678-0.338-0.895l-0.123-0.339l-0.077-0.005l-1.5,10.598h2.19c0.278,0,0.401,0.148,0.37,0.445l-0.417,2.858
			c-0.01,0.133-0.064,0.241-0.162,0.323c-0.098,0.082-0.208,0.123-0.332,0.123h-8.774c-0.247,0-0.37-0.117-0.37-0.353
			C226.532,147.4,226.532,147.369,226.532,147.339z"/>
		<path fill="#FFFFFF" d="M251.723,138.019c0-1.656,0.237-3.198,0.711-4.628c0.474-1.429,1.12-2.656,1.939-3.679
			c0.819-1.023,1.764-1.903,2.836-2.638c1.071-0.735,2.212-1.281,3.423-1.635c1.211-0.355,2.439-0.532,3.685-0.532
			c0.842,0,1.61,0.083,2.304,0.247c0.694,0.165,1.269,0.388,1.726,0.671c0.457,0.283,0.835,0.576,1.133,0.879
			c0.298,0.304,0.544,0.63,0.74,0.98l0.216-2.144c0.031-0.288,0.21-0.432,0.537-0.432h3.12c0.246,0,0.369,0.119,0.369,0.355
			c0,0.031,0,0.056,0,0.077l-1.061,7.528c-0.031,0.288-0.2,0.432-0.508,0.432h-3.552c-0.287,0-0.415-0.144-0.384-0.432l0.031-0.293
			c0.01-0.061,0.015-0.123,0.015-0.185c-0.01-0.308-0.098-0.633-0.262-0.972c-0.206-0.411-0.501-0.807-0.886-1.188
			c-0.385-0.38-0.914-0.694-1.587-0.941c-0.673-0.247-1.415-0.371-2.226-0.371c-0.976,0-1.911,0.185-2.805,0.556
			c-0.894,0.37-1.692,0.897-2.396,1.581c-0.704,0.684-1.266,1.563-1.687,2.638c-0.422,1.075-0.632,2.26-0.632,3.556
			c0,1.913,0.552,3.43,1.656,4.551c1.105,1.121,2.437,1.681,3.999,1.681c0.914,0,1.78-0.108,2.597-0.324
			c0.816-0.216,1.471-0.452,1.965-0.71c0.493-0.257,0.978-0.596,1.456-1.018c0.478-0.422,0.794-0.728,0.948-0.918
			c0.154-0.19,0.344-0.434,0.57-0.733c0.185-0.278,0.385-0.329,0.6-0.155l2.199,1.635c0.195,0.175,0.21,0.396,0.046,0.663
			c-0.01,0.021-0.031,0.057-0.062,0.108c-1.663,2.53-3.917,4.242-6.761,5.137c-1.345,0.422-2.782,0.633-4.312,0.633
			c-1.856,0-3.511-0.391-4.965-1.172c-1.454-0.782-2.606-1.936-3.457-3.463C252.148,141.837,251.723,140.055,251.723,138.019z"/>
		<path fill="#FFFFFF" d="M273.705,147.339l0.401-2.858c0.031-0.297,0.201-0.445,0.509-0.445h2.175l2.132-15.179h-2.19
			c-0.278,0-0.401-0.144-0.37-0.432l0.401-2.885c0.031-0.288,0.201-0.432,0.509-0.432h17.536c0.133,0,0.236,0.041,0.308,0.124
			c0.051,0.051,0.077,0.118,0.077,0.201c0,0.031-0.005,0.067-0.015,0.108l-0.879,6.387c-0.062,0.298-0.232,0.447-0.51,0.447h-2.969
			c-0.145,0-0.253-0.041-0.325-0.122c-0.072-0.082-0.093-0.189-0.062-0.322l0.437-3.073h-7.539l-0.804,5.723h6.233
			c0.277,0,0.401,0.148,0.37,0.442l-0.401,2.865c-0.01,0.132-0.067,0.239-0.17,0.32c-0.103,0.082-0.216,0.122-0.34,0.122h-6.219
			l-0.801,5.708h7.516l0.43-3.027c0.061-0.306,0.23-0.459,0.507-0.459h2.992c0.276,0,0.399,0.15,0.368,0.448l-0.9,6.338
			c-0.01,0.134-0.067,0.243-0.17,0.325c-0.103,0.083-0.216,0.124-0.339,0.124h-17.528c-0.247,0-0.37-0.117-0.37-0.353
			C273.705,147.4,273.705,147.369,273.705,147.339z"/>
	</g>
</g>
</svg>
