<?xml version="1.0" encoding="utf-8"?>
<!-- Generator: Adobe Illustrator 17.0.0, SVG Export Plug-In . SVG Version: 6.00 Build 0)  -->
<!DOCTYPE svg PUBLIC "-//W3C//DTD SVG 1.1//EN" "http://www.w3.org/Graphics/SVG/1.1/DTD/svg11.dtd">
<svg version="1.1" id="Layer_1" xmlns="http://www.w3.org/2000/svg" xmlns:xlink="http://www.w3.org/1999/xlink" x="0px" y="0px"
	 width="310px" height="148px" viewBox="199.331 97.227 310 148" enable-background="new 199.331 97.227 310 148"
	 xml:space="preserve">
<g>
	<g>
		<g>
			<path fill="#010302" d="M506.434,184.894c-0.045-2.782-0.536-5.486-1.43-8.087c-1.642-4.838-4.719-9.228-9.037-12.816
				c-3.43-2.862-7.462-5.01-11.831-6.399c-3.686-1.153-7.596-1.76-11.605-1.76h-1.599c-0.558,0-1.14,0.006-1.698,0.034
				c-8.166,0.346-15.829,3.2-21.75,8.124c-3.095,2.571-5.541,5.554-7.295,8.828c-1.998,3.726-3.099,7.819-3.161,12.076
				c-0.033,2.502,0.917,4.86,2.664,6.635c1,1.017,2.173,1.754,3.481,2.224c-0.057,0.161-0.095,0.33-0.123,0.491
				c-0.034,0.173-0.045,0.352-0.045,0.537v2.479c0,0.112,0,0.222,0.011,0.334c-1.34,0.414-2.564,1.162-3.552,2.168
				c-0.285,0.29-0.553,0.592-0.799,0.927c-1.574,2.167-2.016,4.982-1.189,7.529l1.648,5.083c1.414,4.361,5.446,7.294,10.037,7.294
				h44.271c4.591,0,8.624-2.933,10.042-7.294l1.642-5.083c0.827-2.559,0.385-5.362-1.195-7.529
				c-0.168-0.224-0.348-0.447-0.543-0.654c-1.033-1.156-2.345-1.989-3.809-2.442c0.016-0.112,0.028-0.223,0.028-0.334v-2.479
				c0-0.095-0.012-0.185-0.023-0.285c-0.011-0.167-0.046-0.33-0.078-0.498c1.608-0.413,3.077-1.251,4.267-2.469
				C505.524,189.754,506.467,187.396,506.434,184.894 M444.48,177.744c3.117-7.73,10.897-13.651,20.521-15.404
				c1.91-0.349,3.898-0.536,5.931-0.536h1.599c5.775,0,11.148,1.483,15.617,4.016c6.383,3.625,10.88,9.423,12.019,16.114
				c0.167,1,0.274,2.021,0.297,3.061c0.027,1.838-1.481,3.34-3.329,3.34h-6.452h-29.011h-15.344c-1.848,0-3.356-1.502-3.329-3.34
				C443.039,182.453,443.563,180.023,444.48,177.744 M499.441,206.375l-1.654,5.084c-0.607,1.882-2.373,3.167-4.355,3.167H449.16
				c-1.988,0-3.753-1.285-4.356-3.167l-1.642-5.084c-0.514-1.563,0.648-3.161,2.296-3.161h51.677
				C498.782,203.214,499.933,204.812,499.441,206.375"/>
			<path fill="#010302" d="M462.632,173.125c2.045,0,3.687-1.386,3.687-3.088c0-1.718-1.642-3.112-3.687-3.112
				c-0.682,0-1.307,0.161-1.854,0.432c-0.592,0.297-1.095,0.725-1.419,1.246c-0.251,0.433-0.414,0.908-0.414,1.433
				C458.946,171.74,460.599,173.125,462.632,173.125"/>
			<path fill="#010302" d="M480.06,172.963c2.032,0,3.686-1.385,3.686-3.105c0-1.708-1.654-3.094-3.686-3.094
				c-2.05,0-3.687,1.386-3.687,3.094C476.373,171.577,478.009,172.963,480.06,172.963"/>
			<path fill="#010302" d="M488.315,183.297c1.91,0,3.462-1.308,3.462-2.917c0-1.602-1.552-2.915-3.462-2.915
				c-1.922,0-3.469,1.313-3.469,2.915C484.846,181.989,486.393,183.297,488.315,183.297"/>
			<path fill="#010302" d="M454.186,184.179c2.033,0,3.688-1.386,3.688-3.1c0-1.715-1.654-3.101-3.688-3.101
				c-2.032,0-3.686,1.385-3.686,3.101C450.501,182.794,452.154,184.179,454.186,184.179"/>
			<path fill="#010302" d="M469.1,183.642c0.643,0.453,1.463,0.726,2.369,0.726c2.039,0,3.687-1.391,3.687-3.1
				c0-0.453-0.111-0.871-0.319-1.257c-0.575-1.083-1.871-1.844-3.368-1.844c-2.044,0-3.687,1.385-3.687,3.101
				C467.782,182.219,468.296,183.073,469.1,183.642"/>
			<path fill="#010302" d="M203.207,151.113c-0.67,0-1.044-0.372-0.972-1.115l1.268-8.998c0.073-0.743,0.592-1.115,1.335-1.115
				h4.759l4.312-30.933h-4.759c-0.664,0-1.039-0.373-0.967-1.117l1.268-8.996c0.073-0.746,0.52-1.116,1.262-1.116h25.878
				c8.624,0,14.723,5.205,14.723,13.31c0,5.577-2.898,9.817-6.993,12.791c4.464,2.009,6.619,5.65,6.619,10.186
				c0,11.673-7.21,17.103-21.559,17.103L203.207,151.113L203.207,151.113z M229.382,139.885c5.423,0,8.4-2.454,8.4-6.172
				c0-2.901-2.379-4.758-6.915-4.758h-6.619l-1.486,10.931L229.382,139.885L229.382,139.885z M230.347,119.437
				c4.312,0,7.356-2.231,7.356-5.876c0-3.047-2.379-4.683-6.244-4.683h-4.384l-1.485,10.56L230.347,119.437L230.347,119.437z"/>
			<path fill="#010302" d="M281.505,151.113c-2.306,0-3.424-1.338-3.122-3.645l0.665-4.312h-0.369c0,0-2.53,8.476-10.858,8.476
				c-8.032,0-12.042-5.575-11.077-13.159l1.782-13.981h-3.346c-0.743,0-1.039-0.371-0.966-1.114l1.117-7.733
				c0.072-0.743,0.592-1.117,1.262-1.117h12.193c2.308,0,3.424,1.34,3.123,3.645l-2.228,15.913
				c-0.519,3.717-0.073,6.468,2.825,6.468c4.312,0,6.022-6.84,6.1-7.434l1.262-8.627h-2.753c-0.743,0-1.039-0.371-0.966-1.114
				l1.117-7.733c0.072-0.743,0.592-1.117,1.262-1.117h14.053c0.67,0,1.045,0.374,0.966,1.117l-3.569,25.503h3.272
				c0.743,0,1.046,0.372,0.968,1.117l-1.118,7.734c-0.072,0.743-0.592,1.115-1.262,1.115L281.505,151.113L281.505,151.113z"/>
			<path fill="#010302" d="M297.781,151.113c-0.665,0-1.039-0.372-0.966-1.115l1.117-7.734c0.073-0.745,0.519-1.117,1.262-1.117
				h3.273l2.379-16.656h-3.273c-0.665,0-1.038-0.371-0.966-1.114l1.044-7.733c0.146-0.743,0.52-1.117,1.263-1.117h12.791
				c0.743,0,1.112,0.374,0.966,1.117l-1.038,7.585h0.368c0,0,4.463-9.222,15.617-9.222c0.743,0,1.262,0.595,1.19,1.338l-1.414,9.965
				c-0.078,0.743-0.743,1.338-1.486,1.338h-3.273c-4.759,0-10.116,3.569-10.707,7.883l-0.967,6.616h2.676
				c0.742,0,1.038,0.372,0.966,1.117l-1.118,7.734c-0.072,0.743-0.592,1.115-1.262,1.115H297.781z"/>
			<path fill="#010302" d="M330.423,162.862c-0.447-0.446-0.743-1.117-0.224-1.712l5.503-6.617c0.446-0.595,1.116-0.523,1.636-0.076
				c1.787,1.489,3.346,3.273,9.149,3.273c5.948,0,9.217-2.232,9.886-6.618l0.519-3.494c0,0-3.267,4.088-10.038,4.088
				c-9.221,0-14.197-6.469-14.197-15.615c0-14.204,8.769-22.157,19.627-22.157c7.066,0,9.518,4.089,9.518,4.089h0.151l0.296-2.379
				c0.072-0.743,0.519-1.118,1.262-1.118h12.791c0.743,0,1.117,0.375,0.967,1.118l-1.039,7.732
				c-0.151,0.744-0.671,1.116-1.341,1.116h-2.898l-3.72,26.621c-1.709,12.045-11.673,17.622-22.75,17.622
				C336.148,168.736,331.909,164.275,330.423,162.862 M358.903,131.334c0-4.536-2.306-6.691-5.58-6.691
				c-5.127,0-8.25,4.312-8.25,9.889c0,4.164,2.301,6.617,5.948,6.617C354.815,141.148,358.903,138.322,358.903,131.334"/>
			<path fill="#010302" d="M390.428,134.532c0.224,4.608,3.273,6.543,7.211,6.543c5.206,0,9.819-4.091,9.819-4.091
				c0.52-0.519,1.191-0.743,1.709-0.073l3.943,5.203c0.52,0.671,0.441,1.19-0.079,1.784c-0.742,0.894-6.986,7.734-18.068,7.734
				c-9.965,0-17.472-6.097-17.472-16.357c0-13.757,12.193-21.267,21.783-21.267c10.563,0,15.691,5.578,15.691,15.393
				c0,4.312-1.039,5.131-1.855,5.131L390.428,134.532L390.428,134.532z M403.442,127.838c0.151-1.784-1.189-4.164-4.982-4.164
				c-2.531,0-5.429,0.894-6.988,4.164H403.442z"/>
			<path fill="#010302" d="M417.199,151.113c-0.67,0-1.044-0.372-0.972-1.115l1.118-7.734c0.073-0.745,0.518-1.117,1.261-1.117
				h3.273l2.38-16.656h-3.274c-0.664,0-1.038-0.371-0.966-1.114l1.045-7.733c0.146-0.743,0.52-1.117,1.263-1.117h12.791
				c0.743,0,1.118,0.374,0.967,1.117l-1.045,7.585h0.375c0,0,4.461-9.222,15.617-9.222c0.742,0,1.262,0.595,1.19,1.338l-1.413,9.965
				c-0.078,0.743-0.743,1.338-1.491,1.338h-3.267c-4.76,0-10.116,3.569-10.708,7.883l-0.967,6.616h2.676
				c0.742,0,1.039,0.372,0.965,1.117l-1.117,7.734c-0.073,0.743-0.592,1.115-1.262,1.115H417.199z"/>
			<path fill="#FFFFFF" d="M279.5,219.848c-0.751,0-1.167-0.413-1.083-1.251l1.416-10.087c0.084-0.826,0.668-1.245,1.499-1.245
				h5.335l4.834-34.67h-5.335c-0.749,0-1.167-0.425-1.083-1.251l1.418-10.087c0.082-0.836,0.584-1.251,1.416-1.251h25.087
				c0.832,0,1.416,0.668,1.332,1.499l-1.332,9.583c-0.084,0.837-0.916,1.507-1.751,1.507h-4.999l-4.835,34.67h13.501l1.083-7.92
				c0.167-0.833,0.583-1.245,1.419-1.245h10.333c0.835,0,1.167,0.413,1.083,1.245l-2.667,19.007
				c-0.084,0.827-0.916,1.496-1.748,1.496L279.5,219.848L279.5,219.848z"/>
			<path fill="#FFFFFF" d="M361.842,219.848c-2.586,0-3.834-1.496-3.502-4.083l0.336-2.502h-0.167c0,0-4.586,7.334-14.671,7.334
				c-7.834,0-12.252-4.334-12.252-10.668c0-9.334,7.837-14.913,22.588-14.913h5.002v-0.089c0.081-2.581-1.584-4.246-5.418-4.246
				c-7.002,0-9.836,2.665-10.919,2.665c-0.417,0-0.917-0.084-1.168-0.586l-4.499-6.998c-0.335-0.498-0.335-1,0.249-1.414
				c0,0,6.837-6.088,19.089-6.088c10.746,0,18.331,4.747,16.583,17.584l-1.832,12.834h3.747c0.839,0,1.174,0.42,1.083,1.252
				l-1.251,8.668c-0.078,0.838-0.665,1.251-1.414,1.251L361.842,219.848L361.842,219.848z M358.255,201.762h-3.915
				c-5.418,0-7.585,1.251-7.585,4.167c0,2,1.916,2.915,4.75,2.915c2.835,0,4.919-1.58,6.167-2.999L358.255,201.762z"/>
			<path fill="#FFFFFF" d="M382.005,219.848c-0.749,0-1.167-0.413-1.083-1.251l6.67-47.421h-3.748c-0.755,0-1.174-0.418-1.006-1.251
				l1.173-8.668c0.161-0.836,0.581-1.251,1.413-1.251h15.835c0.836,0,1.251,0.416,1.083,1.251l-2.413,17.416
				c-0.168,1.251-1.251,5.004-1.251,5.004h0.33c0,0,3.087-5.418,11.5-5.418c10.339,0,16.008,7.251,16.008,17.505
				c0,15.919-9.92,24.666-22.091,24.666c-7.914,0-10.584-4.412-10.584-4.412h-0.246l-0.336,2.579
				c-0.089,0.838-0.67,1.251-1.419,1.251H382.005z M412.507,197.511c0-4.663-2.581-7.417-6.662-7.417
				c-4.252,0-8.837,3.167-8.837,10.998c0,5.089,2.663,7.507,6.25,7.507C409.095,208.599,412.507,203.762,412.507,197.511"/>
			<path fill="#FFFFFF" d="M447.484,157.845c5.921-4.924,13.584-7.779,21.75-8.124c0.558-0.028,1.14-0.033,1.698-0.033h1.599
				c4.009,0,7.919,0.606,11.605,1.76c4.369,1.387,8.4,3.535,11.831,6.398c0.75,0.624,1.45,1.28,2.124,1.951
				c0.153,0.003,0.246,0.006,0.251,0.009c0.157-0.623,0.534-5.78,0.529-6.604c-0.067-9.549-10.424-14.986-4.854-20.781
				c0,0-4.709,1.605-4.994,5.906c-0.284,4.307,2.871,6.409,0.81,7.92c-3.089,2.24-13.383-0.868-4.841-10.651
				c0,0-0.733-9.635-10.06-14.648c0,0,4.775,10.297,0,11.565c-7.25,1.93-8.714-10.615-1.709-18.41c0,0-13.562,4.206-14.383,17.595
				c-0.385,6.078,2.352,11.535-2.228,11.847c-2.106,0.151-3.038-3.67-1.095-6.479c0,0-7.177,2.659-8.708,14.528
				c-0.103,0.814-0.142,4.889-0.154,6.975C446.926,158.325,447.2,158.081,447.484,157.845"/>
		</g>
	</g>
	<g>
		<path fill="#FFFFFF" d="M287.73,240.353c-0.184,0-0.277-0.092-0.24-0.277l0.129-0.794c-0.812,0.685-1.975,1.2-3.6,1.2
			c-3.287,0-5.818-2.124-5.818-5.854c0-5.096,3.823-7.646,7.443-7.646c1.828,0,2.751,0.665,3.176,1.368l0.074-0.98
			c0.019-0.184,0.147-0.277,0.331-0.277h2.382c0.185,0,0.259,0.094,0.24,0.277l-0.665,4.673c-0.018,0.186-0.148,0.277-0.314,0.277
			h-2.751c-0.166,0-0.258-0.091-0.24-0.277l0.019-0.185c0.073-0.664-0.684-1.754-2.438-1.754c-2.105,0-3.694,1.587-3.694,4.08
			c0,1.866,1.312,3.086,2.845,3.086c1.717,0,2.585-0.684,3.083-1.313l0.019-0.054h-3.14c-0.166,0-0.277-0.094-0.24-0.278
			l0.277-2.031c0.036-0.185,0.129-0.278,0.313-0.278h6.003c0.185,0,0.258,0.093,0.24,0.278l-0.905,6.482
			c-0.036,0.185-0.128,0.277-0.313,0.277L287.73,240.353L287.73,240.353z"/>
		<path fill="#FFFFFF" d="M292.274,236.475c0-3.214,2.364-5.338,5.633-5.338c2.659,0,4.303,1.551,4.303,4.008
			c0,3.158-2.198,5.337-5.633,5.337C293.826,240.482,292.274,238.913,292.274,236.475 M299.034,235.422
			c0-1.014-0.554-1.643-1.496-1.643c-1.219,0-2.068,0.923-2.068,2.363c0,1.017,0.498,1.719,1.477,1.719
			C298.221,237.86,299.034,236.806,299.034,235.422"/>
		<path fill="#FFFFFF" d="M310.134,240.353c-0.573,0-0.85-0.332-0.775-0.905l0.165-1.071h-0.092c0,0-0.628,2.105-2.696,2.105
			c-1.994,0-2.992-1.385-2.752-3.268l0.443-3.472h-0.832c-0.185,0-0.258-0.092-0.24-0.277l0.277-1.92
			c0.019-0.185,0.148-0.277,0.314-0.277h3.029c0.572,0,0.849,0.333,0.776,0.905l-0.554,3.951c-0.129,0.923-0.019,1.608,0.701,1.608
			c1.072,0,1.496-1.7,1.514-1.847l0.315-2.143h-0.683c-0.185,0-0.259-0.092-0.24-0.277l0.276-1.92
			c0.019-0.185,0.148-0.277,0.314-0.277h3.49c0.166,0,0.259,0.092,0.24,0.277l-0.886,6.335h0.812c0.185,0,0.259,0.091,0.24,0.277
			l-0.276,1.92c-0.019,0.185-0.149,0.277-0.315,0.277L310.134,240.353L310.134,240.353z"/>
		<path fill="#FFFFFF" d="M314.55,240.353c-0.167,0-0.259-0.092-0.241-0.277l0.277-1.92c0.019-0.185,0.129-0.277,0.314-0.277h0.813
			l0.59-4.138h-0.813c-0.166,0-0.258-0.092-0.24-0.277l0.259-1.92c0.036-0.185,0.129-0.277,0.314-0.277H319
			c0.185,0,0.276,0.092,0.24,0.277l-0.259,1.883h0.093c0,0,1.108-2.29,3.878-2.29c0.185,0,0.315,0.147,0.296,0.333l-0.351,2.475
			c-0.018,0.185-0.185,0.332-0.37,0.332h-0.812c-1.182,0-2.512,0.886-2.659,1.957l-0.24,1.645h0.665c0.185,0,0.258,0.091,0.24,0.277
			l-0.277,1.92c-0.019,0.185-0.148,0.277-0.314,0.277H314.55L314.55,240.353z"/>
		<path fill="#FFFFFF" d="M335.308,235.496c0.13-0.923,0.018-1.608-0.702-1.608c-0.924,0-1.329,1.2-1.459,1.626l-0.018,0.055
			l-0.295,2.309h0.831c0.185,0,0.258,0.091,0.24,0.277l-0.278,1.92c-0.018,0.185-0.147,0.277-0.313,0.277h-4.58
			c-0.166,0-0.258-0.092-0.24-0.277l0.277-1.92c0.018-0.185,0.129-0.277,0.315-0.277h0.646l0.331-2.383
			c0.129-0.923,0.018-1.608-0.702-1.608c-1.071,0-1.459,1.643-1.495,1.772l-0.314,2.218h0.406c0.185,0,0.258,0.091,0.24,0.277
			l-0.277,1.92c-0.019,0.185-0.148,0.277-0.314,0.277h-4.321c-0.167,0-0.26-0.092-0.24-0.277l0.277-1.92
			c0.018-0.185,0.129-0.277,0.313-0.277h0.813l0.591-4.138h-0.812c-0.166,0-0.258-0.092-0.241-0.277l0.26-1.92
			c0.036-0.185,0.129-0.277,0.313-0.277h3.177c0.185,0,0.258,0.092,0.241,0.277l-0.241,1.699h0.092c0,0,0.573-2.105,2.862-2.105
			c1.44,0,2.29,0.72,2.548,1.847c0.333-0.72,1.109-1.847,2.698-1.847c1.994,0,2.844,1.386,2.604,3.269l-0.463,3.472h0.832
			c0.184,0,0.259,0.091,0.24,0.277l-0.277,1.92c-0.019,0.185-0.148,0.277-0.315,0.277h-3.028c-0.572,0-0.85-0.332-0.776-0.905
			L335.308,235.496z"/>
		<path fill="#FFFFFF" d="M343.362,236.235c0.055,1.145,0.812,1.626,1.791,1.626c1.293,0,2.438-1.017,2.438-1.017
			c0.129-0.129,0.296-0.183,0.425-0.016l0.978,1.291c0.13,0.167,0.111,0.296-0.018,0.443c-0.184,0.222-1.736,1.921-4.486,1.921
			c-2.476,0-4.34-1.514-4.34-4.063c0-3.416,3.029-5.281,5.411-5.281c2.622,0,3.896,1.386,3.896,3.822
			c0,1.071-0.258,1.275-0.461,1.275L343.362,236.235L343.362,236.235z M346.594,234.573c0.036-0.443-0.295-1.034-1.238-1.034
			c-0.628,0-1.348,0.221-1.736,1.034H346.594z"/>
		<path fill="#FFFFFF" d="M357.915,238.747c0.093,0.129,0.02,0.35-0.147,0.499c-0.535,0.424-1.441,1.237-3.121,1.237
			c-2.456,0-3.583-1.292-3.232-3.767l0.425-2.973h-0.758c-0.185,0-0.313-0.147-0.295-0.332l0.258-1.809
			c0.019-0.185,0.203-0.333,0.388-0.333h0.739l0.314-2.197c0.018-0.185,0.202-0.333,0.388-0.333h2.456
			c0.185,0,0.296,0.147,0.277,0.333l-0.314,2.197h2.309c0.185,0,0.296,0.149,0.276,0.333l-0.258,1.809
			c-0.018,0.185-0.184,0.332-0.37,0.332h-2.289l-0.426,2.973c-0.073,0.499,0.056,1.035,0.832,1.035c0.683,0,0.924-0.241,1.219-0.462
			c0.167-0.11,0.368-0.073,0.461,0.056L357.915,238.747z"/>
		<path fill="#FFFFFF" d="M363.956,240.353c-0.166,0-0.258-0.092-0.241-0.277l0.315-2.234c0.018-0.185,0.147-0.278,0.332-0.278
			h1.181l1.071-7.684h-1.182c-0.167,0-0.259-0.091-0.241-0.276l0.315-2.236c0.018-0.184,0.129-0.277,0.313-0.277h6.427
			c2.142,0,3.658,1.293,3.658,3.306c0,1.385-0.72,2.437-1.737,3.177c1.108,0.499,1.643,1.403,1.643,2.53
			c0,2.901-1.791,4.248-5.355,4.248H363.956z M370.456,237.565c1.349,0,2.087-0.609,2.087-1.533c0-0.72-0.591-1.182-1.717-1.182
			h-1.644l-0.37,2.715H370.456z M370.696,232.486c1.071,0,1.828-0.554,1.828-1.459c0-0.757-0.592-1.162-1.551-1.162h-1.089
			l-0.37,2.621H370.696z"/>
		<path fill="#FFFFFF" d="M383.773,240.353c-0.572,0-0.849-0.332-0.775-0.905l0.166-1.071h-0.091c0,0-0.628,2.105-2.696,2.105
			c-1.995,0-2.992-1.385-2.751-3.268l0.442-3.472h-0.831c-0.184,0-0.258-0.092-0.24-0.277l0.278-1.92
			c0.018-0.185,0.149-0.277,0.313-0.277h3.03c0.572,0,0.848,0.333,0.775,0.905l-0.553,3.951c-0.13,0.923-0.019,1.608,0.701,1.608
			c1.071,0,1.496-1.7,1.514-1.847l0.313-2.143h-0.683c-0.183,0-0.258-0.092-0.24-0.277l0.277-1.92
			c0.019-0.185,0.149-0.277,0.315-0.277h3.49c0.165,0,0.258,0.092,0.24,0.277l-0.888,6.335h0.813c0.186,0,0.258,0.091,0.241,0.277
			l-0.279,1.92c-0.017,0.185-0.147,0.277-0.313,0.277L383.773,240.353L383.773,240.353z"/>
		<path fill="#FFFFFF" d="M388.189,240.353c-0.167,0-0.258-0.092-0.24-0.277l0.276-1.92c0.02-0.185,0.13-0.277,0.314-0.277h0.814
			l0.591-4.138h-0.813c-0.165,0-0.259-0.092-0.24-0.277l0.258-1.92c0.038-0.185,0.13-0.277,0.313-0.277h3.177
			c0.184,0,0.277,0.092,0.24,0.277l-0.259,1.883h0.093c0,0,1.108-2.29,3.878-2.29c0.185,0,0.313,0.147,0.295,0.333l-0.35,2.475
			c-0.018,0.185-0.185,0.332-0.369,0.332h-0.813c-1.181,0-2.511,0.886-2.659,1.957l-0.24,1.645h0.665
			c0.185,0,0.258,0.091,0.24,0.277l-0.278,1.92c-0.017,0.185-0.146,0.277-0.313,0.277H388.189L388.189,240.353z"/>
		<path fill="#FFFFFF" d="M396.666,243.27c-0.109-0.111-0.184-0.276-0.055-0.425l1.367-1.642c0.111-0.149,0.276-0.13,0.405-0.02
			c0.443,0.37,0.832,0.813,2.272,0.813c1.476,0,2.289-0.555,2.457-1.644l0.129-0.867c0,0-0.813,1.015-2.493,1.015
			c-2.291,0-3.527-1.607-3.527-3.878c0-3.527,2.178-5.504,4.874-5.504c1.755,0,2.365,1.014,2.365,1.014h0.036l0.076-0.59
			c0.017-0.185,0.128-0.277,0.312-0.277h3.178c0.185,0,0.276,0.092,0.24,0.277l-0.259,1.92c-0.037,0.185-0.167,0.278-0.334,0.278
			h-0.719l-0.925,6.611c-0.423,2.992-2.898,4.376-5.65,4.376C398.089,244.73,397.035,243.622,396.666,243.27 M403.739,235.44
			c0-1.127-0.572-1.662-1.385-1.662c-1.274,0-2.049,1.071-2.049,2.456c0,1.035,0.572,1.645,1.477,1.645
			C402.723,237.879,403.739,237.177,403.739,235.44"/>
		<path fill="#FFFFFF" d="M411.94,236.235c0.056,1.145,0.812,1.626,1.791,1.626c1.293,0,2.438-1.017,2.438-1.017
			c0.13-0.129,0.295-0.183,0.424-0.016l0.978,1.291c0.13,0.167,0.112,0.296-0.018,0.443c-0.184,0.222-1.735,1.921-4.487,1.921
			c-2.474,0-4.34-1.514-4.34-4.063c0-3.416,3.029-5.281,5.411-5.281c2.622,0,3.896,1.386,3.896,3.822
			c0,1.071-0.259,1.275-0.462,1.275L411.94,236.235L411.94,236.235z M415.172,234.573c0.036-0.443-0.296-1.034-1.237-1.034
			c-0.628,0-1.348,0.221-1.738,1.034H415.172z"/>
		<path fill="#FFFFFF" d="M418.96,240.353c-0.167,0-0.258-0.092-0.24-0.277l0.276-1.92c0.019-0.185,0.13-0.277,0.314-0.277h0.813
			l0.591-4.138H419.9c-0.165,0-0.258-0.092-0.24-0.277l0.258-1.92c0.038-0.185,0.13-0.277,0.314-0.277h3.177
			c0.184,0,0.277,0.092,0.24,0.277l-0.258,1.883h0.092c0,0,1.108-2.29,3.878-2.29c0.186,0,0.314,0.147,0.295,0.333l-0.351,2.475
			c-0.018,0.185-0.184,0.332-0.368,0.332h-0.814c-1.18,0-2.511,0.886-2.659,1.957l-0.239,1.645h0.664
			c0.185,0,0.259,0.091,0.24,0.277l-0.277,1.92c-0.017,0.185-0.148,0.277-0.313,0.277H418.96L418.96,240.353z"/>
		<path fill="#FFFFFF" d="M429.543,239.54h-0.038c0,0-0.017,0.332-0.038,0.481c-0.018,0.185-0.183,0.332-0.369,0.332h-1.478
			c-0.183,0-0.313-0.148-0.295-0.332l0.426-2.862c0.018-0.185,0.203-0.332,0.387-0.332h1.736c0.185,0,0.277,0.129,0.277,0.313v0.055
			c0,0,0.203,0.923,1.57,0.923c0.589,0,0.996-0.183,0.996-0.59c0-0.942-4.284-0.167-4.284-3.121c0-1.755,1.312-3.269,3.841-3.269
			c1.255,0,1.957,0.407,2.346,0.943h0.037v-0.222c0-0.387,0.185-0.535,0.389-0.535h1.347c0.186,0,0.296,0.148,0.276,0.332
			l-0.423,2.9c-0.019,0.185-0.203,0.332-0.389,0.332h-1.735c-0.185,0-0.314-0.148-0.279-0.332l0.02-0.093
			c0.092-0.517-0.499-0.923-1.384-0.923c-0.61,0-0.962,0.277-0.962,0.665c0,1.275,4.562,0.276,4.562,3.25
			c0,1.348-1.054,3.047-4.082,3.047C430.409,240.501,429.543,239.54,429.543,239.54"/>
		<path fill="#000100" d="M450.135,240.353c-0.333-0.019-0.555-0.258-0.757-0.665l-0.018-0.037
			c-0.831,0.498-1.791,0.831-2.935,0.831c-2.79,0-4.397-1.44-4.397-3.397c0-2.421,1.885-3.546,3.343-4.175
			c-0.313-0.424-0.757-1.237-0.757-2.197c0-2.013,1.551-3.73,4.155-3.73c2.179,0,3.287,1.183,3.287,2.843
			c0,1.866-1.59,3.123-3.03,3.898l0.943,1.551c0.072-0.258,0.11-0.517,0.277-1.661c0.018-0.186,0.128-0.278,0.313-0.278h3.508
			c0.186,0,0.278,0.092,0.24,0.278l-0.203,1.496c-0.037,0.184-0.149,0.277-0.313,0.277h-1.33c-0.203,0.702-0.554,1.514-1.089,2.291
			l0.128,0.203h1.405c0.184,0,0.258,0.091,0.239,0.277l-0.276,1.92c-0.018,0.185-0.148,0.277-0.314,0.277L450.135,240.353
			L450.135,240.353z M446.608,234.979c-0.646,0.388-1.182,0.905-1.182,1.663c0,0.738,0.479,1.201,1.423,1.201
			c0.498,0,0.94-0.093,1.292-0.259L446.608,234.979z M449.249,230.325c0-0.425-0.24-0.739-0.683-0.739
			c-0.647,0-1.017,0.518-1.017,1.126c0,0.481,0.223,0.905,0.426,1.22C448.879,231.451,449.249,231.027,449.249,230.325"/>
		<path fill="#FFFFFF" d="M459.611,240.353c-0.165,0-0.258-0.092-0.24-0.277l0.314-2.234c0.018-0.185,0.146-0.278,0.332-0.278h1.181
			l1.073-7.684h-1.184c-0.164,0-0.258-0.091-0.24-0.276l0.314-2.236c0.018-0.184,0.13-0.276,0.313-0.276h5.208
			c3.213,0,6.003,2.05,6.003,5.872c0,4.581-3.583,7.387-6.833,7.387H459.611z M464.949,237.565c2.659,0,4.248-1.053,4.248-4.413
			c0-2.271-1.257-3.27-3.418-3.27h-0.24l-1.071,7.684L464.949,237.565L464.949,237.565z"/>
		<path fill="#FFFFFF" d="M473.501,236.475c0-3.214,2.363-5.338,5.631-5.338c2.66,0,4.304,1.551,4.304,4.008
			c0,3.158-2.199,5.337-5.633,5.337C475.052,240.482,473.501,238.913,473.501,236.475 M480.259,235.422
			c0-1.014-0.554-1.643-1.496-1.643c-1.218,0-2.068,0.923-2.068,2.363c0,1.017,0.5,1.719,1.478,1.719
			C479.447,237.86,480.259,236.806,480.259,235.422"/>
		<path fill="#FFFFFF" d="M483.937,243.27c-0.112-0.111-0.185-0.276-0.055-0.425l1.366-1.642c0.111-0.149,0.278-0.13,0.407-0.02
			c0.443,0.37,0.831,0.813,2.27,0.813c1.478,0,2.291-0.555,2.457-1.644l0.13-0.867c0,0-0.812,1.015-2.494,1.015
			c-2.289,0-3.527-1.607-3.527-3.878c0-3.527,2.179-5.504,4.876-5.504c1.754,0,2.363,1.014,2.363,1.014h0.038l0.074-0.59
			c0.019-0.185,0.13-0.277,0.314-0.277h3.176c0.186,0,0.278,0.092,0.242,0.277l-0.26,1.92c-0.037,0.185-0.166,0.278-0.331,0.278
			h-0.722l-0.922,6.611c-0.426,2.992-2.9,4.376-5.651,4.376C485.358,244.73,484.305,243.622,483.937,243.27 M491.01,235.44
			c0-1.127-0.572-1.662-1.385-1.662c-1.275,0-2.05,1.071-2.05,2.456c0,1.035,0.574,1.645,1.477,1.645
			C489.993,237.879,491.01,237.177,491.01,235.44"/>
		<path fill="#FFFFFF" d="M497.88,239.54h-0.037c0,0-0.018,0.332-0.036,0.481c-0.02,0.185-0.186,0.332-0.37,0.332h-1.477
			c-0.185,0-0.314-0.148-0.296-0.332l0.425-2.862c0.019-0.185,0.203-0.332,0.386-0.332h1.738c0.184,0,0.277,0.129,0.277,0.313v0.055
			c0,0,0.203,0.923,1.568,0.923c0.591,0,0.998-0.183,0.998-0.59c0-0.942-4.285-0.167-4.285-3.121c0-1.755,1.311-3.269,3.841-3.269
			c1.256,0,1.957,0.407,2.347,0.943h0.036v-0.222c0-0.387,0.185-0.535,0.388-0.535h1.348c0.185,0,0.296,0.148,0.277,0.332
			l-0.423,2.9c-0.019,0.185-0.204,0.332-0.388,0.332h-1.736c-0.184,0-0.315-0.148-0.276-0.332l0.018-0.093
			c0.092-0.517-0.499-0.923-1.385-0.923c-0.61,0-0.959,0.277-0.959,0.665c0,1.275,4.561,0.276,4.561,3.25
			c0,1.348-1.051,3.047-4.081,3.047C498.749,240.501,497.88,239.54,497.88,239.54"/>
	</g>
</g>
</svg>
