<?xml version="1.0" encoding="utf-8"?>
<!-- Generator: Adobe Illustrator 17.0.0, SVG Export Plug-In . SVG Version: 6.00 Build 0)  -->
<!DOCTYPE svg PUBLIC "-//W3C//DTD SVG 1.1//EN" "http://www.w3.org/Graphics/SVG/1.1/DTD/svg11.dtd">
<svg version="1.1" id="Isolation_Mode" xmlns="http://www.w3.org/2000/svg" xmlns:xlink="http://www.w3.org/1999/xlink" x="0px"
	 y="0px" width="737.008px" height="368.504px" viewBox="0 0 737.008 368.504" enable-background="new 0 0 737.008 368.504"
	 xml:space="preserve">
<g>
	<path fill="#FFFFFF" d="M724.168,215.018c-0.105-6.48-1.249-12.779-3.332-18.84c-3.825-11.27-10.993-21.497-21.051-29.855
		c-7.991-6.668-17.383-11.672-27.561-14.906c-8.587-2.686-17.695-4.099-27.035-4.099h-3.724c-1.3,0-2.655,0.014-3.955,0.079
		c-19.024,0.806-36.874,7.455-50.668,18.925c-7.209,5.99-12.907,12.939-16.994,20.564c-4.655,8.679-7.219,18.215-7.364,28.131
		c-0.076,5.829,2.136,11.321,6.207,15.457c2.33,2.37,5.061,4.085,8.108,5.18c-0.133,0.376-0.222,0.769-0.286,1.144
		c-0.08,0.404-0.105,0.821-0.105,1.251v5.776c0,0.26,0,0.519,0.025,0.779c-3.121,0.964-5.974,2.708-8.274,5.051
		c-0.664,0.676-1.288,1.378-1.862,2.16c-3.667,5.047-4.696,11.605-2.77,17.539l3.838,11.841
		c3.293,10.16,12.686,16.992,23.381,16.992h103.131c10.694,0,20.09-6.832,23.394-16.992l3.826-11.841
		c1.926-5.961,0.896-12.492-2.784-17.539c-0.392-0.523-0.811-1.042-1.264-1.523c-2.406-2.693-5.463-4.633-8.873-5.688
		c0.038-0.261,0.065-0.52,0.065-0.779v-5.776c0-0.222-0.027-0.43-0.053-0.664c-0.026-0.39-0.105-0.769-0.181-1.159
		c3.746-0.962,7.167-2.914,9.94-5.751C722.048,226.34,724.246,220.848,724.168,215.018 M579.844,198.363
		c7.262-18.008,25.385-31.8,47.805-35.885c4.45-0.813,9.081-1.249,13.817-1.249h3.724c13.452,0,25.97,3.455,36.38,9.355
		c14.869,8.444,25.345,21.95,27.999,37.538c0.39,2.329,0.638,4.708,0.691,7.131c0.063,4.281-3.45,7.78-7.756,7.78h-15.029h-67.582
		h-35.743c-4.306,0-7.819-3.499-7.754-7.78C576.487,209.332,577.709,203.671,579.844,198.363 M707.878,265.06l-3.854,11.843
		c-1.415,4.384-5.527,7.377-10.146,7.377H590.746c-4.63,0-8.743-2.993-10.148-7.377l-3.825-11.843
		c-1.198-3.642,1.51-7.364,5.348-7.364h120.384C706.343,257.695,709.023,261.418,707.878,265.06"/>
	<path fill="#FFFFFF" d="M622.131,187.604c4.763,0,8.589-3.228,8.589-7.194c0-4.003-3.826-7.249-8.589-7.249
		c-1.588,0-3.045,0.376-4.319,1.007c-1.38,0.691-2.55,1.689-3.305,2.903c-0.585,1.009-0.964,2.115-0.964,3.339
		C613.543,184.376,617.394,187.604,622.131,187.604"/>
	<path fill="#FFFFFF" d="M662.728,187.225c4.734,0,8.586-3.227,8.586-7.234c0-3.98-3.852-7.208-8.586-7.208
		c-4.776,0-8.589,3.228-8.589,7.208C654.14,183.997,657.952,187.225,662.728,187.225"/>
	<path fill="#FFFFFF" d="M681.959,211.299c4.45,0,8.066-3.047,8.066-6.795c0-3.732-3.616-6.79-8.066-6.79
		c-4.477,0-8.081,3.058-8.081,6.79C673.878,208.252,677.482,211.299,681.959,211.299"/>
	<path fill="#FFFFFF" d="M602.456,213.354c4.737,0,8.591-3.228,8.591-7.222c0-3.996-3.854-7.223-8.591-7.223
		c-4.734,0-8.586,3.227-8.586,7.223C593.87,210.126,597.722,213.354,602.456,213.354"/>
	<path fill="#FFFFFF" d="M637.198,212.104c1.497,1.055,3.408,1.692,5.518,1.692c4.75,0,8.588-3.24,8.588-7.222
		c0-1.056-0.259-2.029-0.743-2.928c-1.34-2.523-4.358-4.295-7.845-4.295c-4.762,0-8.588,3.227-8.588,7.223
		C634.128,208.786,635.324,210.776,637.198,212.104"/>
	<path fill="#FFFFFF" d="M17.794,136.326c-1.56,0-2.433-0.867-2.264-2.598l2.954-20.961c0.169-1.731,1.378-2.597,3.109-2.597h11.086
		l10.045-72.059H31.638c-1.547,0-2.42-0.87-2.252-2.601l2.954-20.957c0.169-1.737,1.211-2.6,2.94-2.6h60.284
		c20.09,0,34.298,12.125,34.298,31.005c0,12.992-6.752,22.868-16.291,29.796c10.398,4.679,15.419,13.161,15.419,23.728
		c0,27.193-16.797,39.842-50.223,39.842H17.794z M78.768,110.17c12.633,0,19.568-5.717,19.568-14.377
		c0-6.759-5.542-11.085-16.108-11.085H66.81l-3.462,25.463H78.768z M81.017,62.536c10.045,0,17.135-5.197,17.135-13.689
		c0-7.098-5.541-10.909-14.546-10.909H73.394l-3.461,24.599H81.017z"/>
	<path fill="#FFFFFF" d="M200.19,136.325c-5.372,0-7.977-3.118-7.272-8.491l1.549-10.046h-0.86c0,0-5.894,19.746-25.294,19.746
		c-18.71,0-28.052-12.986-25.803-30.655l4.152-32.568h-7.794c-1.73,0-2.421-0.865-2.251-2.596l2.602-18.015
		c0.167-1.731,1.38-2.602,2.939-2.602h28.405c5.376,0,7.977,3.122,7.274,8.49l-5.191,37.069c-1.21,8.66-0.169,15.068,6.582,15.068
		c10.045,0,14.028-15.934,14.211-17.318l2.94-20.097h-6.414c-1.731,0-2.42-0.865-2.251-2.596l2.603-18.015
		c0.169-1.731,1.379-2.602,2.94-2.602h32.736c1.561,0,2.434,0.871,2.25,2.602l-8.313,59.411h7.623c1.731,0,2.436,0.866,2.254,2.601
		l-2.605,18.016c-0.167,1.731-1.378,2.597-2.939,2.597H200.19z"/>
	<path fill="#FFFFFF" d="M238.106,136.325c-1.549,0-2.421-0.866-2.25-2.597l2.602-18.016c0.17-1.735,1.21-2.601,2.941-2.601h7.624
		l5.543-38.8h-7.625c-1.549,0-2.418-0.865-2.251-2.596l2.433-18.015c0.34-1.731,1.211-2.602,2.942-2.602h29.796
		c1.732,0,2.59,0.871,2.251,2.602l-2.419,17.669h0.857c0,0,10.397-21.482,36.381-21.482c1.732,0,2.939,1.385,2.772,3.116
		l-3.293,23.214c-0.182,1.731-1.73,3.117-3.461,3.117h-7.625c-11.086,0-23.565,8.313-24.942,18.364l-2.252,15.413h6.234
		c1.729,0,2.418,0.866,2.251,2.601l-2.605,18.016c-0.168,1.731-1.378,2.597-2.94,2.597H238.106z"/>
	<path fill="#FFFFFF" d="M314.146,163.695c-1.041-1.04-1.731-2.603-0.521-3.988l12.819-15.414c1.04-1.385,2.6-1.218,3.812-0.176
		c4.163,3.468,7.794,7.625,21.313,7.625c13.857,0,21.471-5.199,23.03-15.417l1.209-8.14c0,0-7.611,9.524-23.383,9.524
		c-21.48,0-33.073-15.069-33.073-36.375c0-33.088,20.427-51.616,45.721-51.616c16.46,0,22.172,9.525,22.172,9.525h0.352l0.69-5.543
		c0.167-1.731,1.209-2.604,2.94-2.604h29.797c1.73,0,2.601,0.873,2.252,2.604l-2.42,18.012c-0.352,1.733-1.563,2.599-3.124,2.599
		h-6.752l-8.667,62.014c-3.981,28.059-27.193,41.051-52.997,41.051C327.483,177.377,317.607,166.986,314.146,163.695 M380.492,90.25
		c0-10.566-5.373-15.588-12.999-15.588c-11.944,0-19.218,10.045-19.218,23.037c0,9.701,5.36,15.414,13.857,15.414
		C370.967,113.112,380.492,106.527,380.492,90.25"/>
	<path fill="#FFFFFF" d="M453.93,97.699c0.522,10.734,7.624,15.243,16.798,15.243c12.128,0,22.874-9.531,22.874-9.531
		c1.211-1.21,2.774-1.73,3.981-0.169l9.186,12.121c1.212,1.562,1.028,2.773-0.184,4.157c-1.729,2.083-16.274,18.016-42.091,18.016
		c-23.213,0-40.701-14.203-40.701-38.105c0-32.048,28.405-49.542,50.745-49.542c24.607,0,36.552,12.993,36.552,35.859
		c0,10.046-2.421,11.952-4.321,11.952H453.93z M484.246,82.105c0.352-4.157-2.771-9.7-11.605-9.7c-5.896,0-12.647,2.082-16.278,9.7
		H484.246z"/>
	<path fill="#FFFFFF" d="M516.294,136.325c-1.56,0-2.432-0.866-2.265-2.597l2.605-18.016c0.169-1.735,1.207-2.601,2.938-2.601h7.625
		l5.544-38.8h-7.627c-1.546,0-2.417-0.865-2.25-2.596l2.434-18.015c0.339-1.731,1.212-2.602,2.941-2.602h29.796
		c1.73,0,2.604,0.871,2.253,2.602l-2.435,17.669h0.873c0,0,10.393-21.482,36.38-21.482c1.729,0,2.94,1.385,2.771,3.116
		l-3.292,23.214c-0.181,1.731-1.73,3.117-3.474,3.117h-7.61c-11.088,0-23.565,8.313-24.944,18.364l-2.252,15.413h6.234
		c1.73,0,2.421,0.866,2.249,2.601l-2.601,18.016c-0.17,1.731-1.379,2.597-2.94,2.597H516.294z"/>
	<path fill="#FFFFFF" d="M195.519,296.444c-1.75,0-2.718-0.962-2.523-2.914l3.299-23.499c0.195-1.925,1.555-2.9,3.493-2.9h12.428
		l11.261-80.765h-12.426c-1.745,0-2.719-0.989-2.523-2.915l3.304-23.497c0.19-1.947,1.36-2.915,3.299-2.915h58.44
		c1.939,0,3.299,1.557,3.104,3.492l-3.104,22.324c-0.195,1.95-2.133,3.511-4.078,3.511h-11.645l-11.263,80.765h31.45l2.523-18.451
		c0.39-1.939,1.359-2.9,3.306-2.9h24.071c1.945,0,2.719,0.961,2.524,2.9l-6.213,44.278c-0.196,1.927-2.134,3.486-4.073,3.486
		H195.519z"/>
	<path fill="#FFFFFF" d="M387.337,296.444c-6.024,0-8.931-3.485-8.159-9.511l0.782-5.829h-0.39c0,0-10.684,17.084-34.176,17.084
		c-18.249,0-28.542-10.097-28.542-24.852c0-21.743,18.256-34.741,52.62-34.741h11.652v-0.208c0.189-6.013-3.689-9.89-12.621-9.89
		c-16.311,0-22.914,6.207-25.437,6.207c-0.971,0-2.135-0.195-2.721-1.366l-10.48-16.303c-0.781-1.159-0.781-2.33,0.579-3.293
		c0,0,15.926-14.183,44.468-14.183c25.033,0,42.703,11.059,38.631,40.962l-4.268,29.898h8.729c1.954,0,2.734,0.977,2.524,2.916
		l-2.914,20.193c-0.181,1.952-1.549,2.914-3.293,2.914H387.337z M378.982,254.314h-9.12c-12.622,0-17.67,2.915-17.67,9.706
		c0,4.659,4.463,6.79,11.065,6.79c6.605,0,11.457-3.68,14.367-6.986L378.982,254.314z"/>
	<path fill="#FFFFFF" d="M434.308,296.444c-1.744,0-2.719-0.962-2.523-2.914l15.537-110.469h-8.73c-1.758,0-2.734-0.974-2.343-2.915
		l2.733-20.192c0.376-1.947,1.353-2.915,3.291-2.915h36.889c1.948,0,2.914,0.968,2.523,2.915l-5.621,40.57
		c-0.392,2.914-2.914,11.657-2.914,11.657h0.768c0,0,7.192-12.621,26.79-12.621c24.084,0,37.291,16.892,37.291,40.778
		c0,37.083-23.108,57.46-51.461,57.46c-18.437,0-24.655-10.277-24.655-10.277h-0.572l-0.782,6.009
		c-0.207,1.952-1.56,2.914-3.305,2.914H434.308z M505.364,244.41c0-10.863-6.012-17.278-15.52-17.278
		c-9.905,0-20.587,7.378-20.587,25.62c0,11.854,6.204,17.487,14.56,17.487C497.414,270.239,505.364,258.972,505.364,244.41"/>
	<path fill="#FFFFFF" d="M586.843,152.007c13.794-11.47,31.643-18.121,50.668-18.926c1.3-0.066,2.655-0.078,3.955-0.078h3.724
		c9.34,0,18.448,1.411,27.035,4.099c10.178,3.232,19.569,8.235,27.561,14.905c1.748,1.453,3.377,2.982,4.949,4.545
		c0.356,0.006,0.572,0.013,0.584,0.022c0.365-1.451,1.244-13.464,1.232-15.383c-0.157-22.245-24.282-34.911-11.308-48.41
		c0,0-10.969,3.74-11.633,13.759c-0.662,10.033,6.688,14.929,1.886,18.45c-7.195,5.218-31.175-2.022-11.278-24.812
		c0,0-1.707-22.446-23.435-34.124c0,0,11.123,23.986,0,26.94c-16.889,4.495-20.3-24.729-3.982-42.887
		c0,0-31.593,9.799-33.505,40.987c-0.898,14.158,5.479,26.87-5.191,27.598c-4.905,0.351-7.077-8.549-2.55-15.093
		c0,0-16.72,6.194-20.286,33.843c-0.239,1.896-0.33,11.39-0.359,16.249C585.543,153.125,586.182,152.556,586.843,152.007"/>
	<path fill="#FFFFFF" d="M210.514,348.655c-0.419,0-0.629-0.21-0.545-0.628l0.293-1.803c-1.843,1.553-4.485,2.725-8.174,2.725
		c-7.464,0-13.208-4.823-13.208-13.291c0-11.57,8.679-17.356,16.896-17.356c4.15,0,6.247,1.509,7.212,3.103l0.167-2.223
		c0.043-0.417,0.335-0.629,0.753-0.629h5.409c0.419,0,0.587,0.212,0.545,0.629l-1.51,10.608c-0.04,0.42-0.335,0.628-0.712,0.628
		h-6.247c-0.377,0-0.585-0.208-0.545-0.628l0.043-0.422c0.167-1.506-1.553-3.98-5.535-3.98c-4.779,0-8.386,3.605-8.386,9.264
		c0,4.237,2.978,7.004,6.458,7.004c3.898,0,5.869-1.553,6.999-2.979l0.043-0.124h-7.128c-0.377,0-0.63-0.212-0.545-0.629l0.63-4.613
		c0.082-0.418,0.292-0.629,0.711-0.629h13.626c0.42,0,0.586,0.211,0.545,0.629l-2.055,14.717c-0.084,0.418-0.292,0.628-0.712,0.628
		H210.514z"/>
	<path fill="#FFFFFF" d="M220.831,339.852c0-7.296,5.365-12.117,12.788-12.117c6.037,0,9.769,3.521,9.769,9.099
		c0,7.169-4.989,12.116-12.788,12.116C224.354,348.949,220.831,345.386,220.831,339.852 M236.177,337.461
		c0-2.305-1.257-3.73-3.396-3.73c-2.767,0-4.697,2.096-4.697,5.365c0,2.308,1.132,3.901,3.355,3.901
		C234.33,342.997,236.177,340.605,236.177,337.461"/>
	<path fill="#FFFFFF" d="M261.377,348.655c-1.3,0-1.93-0.755-1.76-2.054l0.375-2.433h-0.208c0,0-1.424,4.78-6.121,4.78
		c-4.528,0-6.793-3.146-6.247-7.421l1.005-7.882h-1.887c-0.419,0-0.587-0.209-0.544-0.63l0.629-4.359
		c0.042-0.419,0.335-0.629,0.712-0.629h6.876c1.299,0,1.927,0.755,1.76,2.056l-1.257,8.97c-0.293,2.098-0.042,3.649,1.592,3.649
		c2.433,0,3.397-3.857,3.438-4.193l0.715-4.863h-1.553c-0.417,0-0.586-0.209-0.542-0.63l0.627-4.359
		c0.043-0.419,0.335-0.629,0.713-0.629h7.924c0.375,0,0.587,0.21,0.545,0.629l-2.013,14.383h1.843c0.421,0,0.588,0.207,0.546,0.627
		l-0.628,4.36c-0.043,0.418-0.336,0.628-0.714,0.628H261.377z"/>
	<path fill="#FFFFFF" d="M271.4,348.655c-0.378,0-0.587-0.21-0.546-0.628l0.629-4.36c0.043-0.42,0.293-0.627,0.712-0.627h1.847
		l1.34-9.393h-1.845c-0.377,0-0.587-0.209-0.545-0.63l0.588-4.359c0.083-0.419,0.292-0.629,0.712-0.629h7.211
		c0.419,0,0.627,0.21,0.544,0.629l-0.587,4.276h0.21c0,0,2.515-5.199,8.804-5.199c0.419,0,0.714,0.335,0.671,0.756l-0.797,5.618
		c-0.042,0.419-0.42,0.754-0.839,0.754h-1.845c-2.683,0-5.702,2.013-6.037,4.444l-0.545,3.733h1.51c0.42,0,0.585,0.207,0.545,0.627
		l-0.629,4.36c-0.042,0.418-0.335,0.628-0.713,0.628H271.4z"/>
	<path fill="#FFFFFF" d="M318.525,337.63c0.295-2.098,0.042-3.648-1.593-3.648c-2.097,0-3.018,2.724-3.314,3.69l-0.04,0.126
		l-0.67,5.243h1.885c0.419,0,0.587,0.207,0.545,0.627l-0.63,4.36c-0.041,0.418-0.335,0.628-0.711,0.628H303.6
		c-0.377,0-0.586-0.21-0.545-0.628l0.628-4.36c0.042-0.42,0.294-0.627,0.714-0.627h1.467l0.754-5.41
		c0.292-2.098,0.041-3.648-1.595-3.648c-2.432,0-3.312,3.73-3.395,4.023l-0.712,5.035h0.921c0.419,0,0.587,0.207,0.546,0.627
		l-0.629,4.36c-0.043,0.418-0.336,0.628-0.712,0.628h-9.81c-0.378,0-0.589-0.21-0.545-0.628l0.628-4.36
		c0.04-0.42,0.293-0.627,0.712-0.627h1.845l1.34-9.393h-1.843c-0.377,0-0.587-0.209-0.546-0.63l0.589-4.359
		c0.082-0.419,0.292-0.629,0.71-0.629h7.212c0.419,0,0.586,0.21,0.546,0.629l-0.546,3.857h0.21c0,0,1.299-4.78,6.499-4.78
		c3.269,0,5.199,1.634,5.784,4.192c0.755-1.635,2.517-4.192,6.123-4.192c4.526,0,6.455,3.145,5.912,7.422l-1.05,7.884h1.887
		c0.418,0,0.587,0.207,0.544,0.627l-0.628,4.36c-0.043,0.418-0.336,0.628-0.714,0.628h-6.874c-1.298,0-1.93-0.755-1.76-2.054
		L318.525,337.63z"/>
	<path fill="#FFFFFF" d="M336.811,339.307c0.125,2.599,1.843,3.691,4.066,3.691c2.935,0,5.533-2.309,5.533-2.309
		c0.294-0.293,0.672-0.418,0.965-0.039l2.222,2.933c0.294,0.379,0.252,0.672-0.041,1.007c-0.419,0.503-3.941,4.36-10.187,4.36
		c-5.62,0-9.854-3.439-9.854-9.224c0-7.757,6.876-11.991,12.284-11.991c5.954,0,8.846,3.145,8.846,8.678
		c0,2.434-0.585,2.895-1.048,2.895H336.811z M344.147,335.532c0.083-1.005-0.67-2.347-2.81-2.347c-1.426,0-3.061,0.502-3.94,2.347
		H344.147z"/>
	<path fill="#FFFFFF" d="M369.85,345.009c0.21,0.293,0.043,0.795-0.335,1.131c-1.215,0.965-3.272,2.81-7.085,2.81
		c-5.576,0-8.134-2.935-7.337-8.554l0.966-6.749h-1.721c-0.42,0-0.712-0.336-0.671-0.754l0.585-4.109
		c0.043-0.419,0.462-0.755,0.882-0.755h1.676l0.713-4.989c0.04-0.419,0.46-0.753,0.881-0.753h5.575c0.419,0,0.672,0.334,0.628,0.753
		l-0.713,4.989h5.242c0.419,0,0.672,0.336,0.626,0.755l-0.586,4.109c-0.04,0.418-0.418,0.754-0.838,0.754h-5.197l-0.967,6.749
		c-0.167,1.133,0.127,2.35,1.889,2.35c1.551,0,2.098-0.548,2.766-1.049c0.379-0.252,0.837-0.168,1.047,0.126L369.85,345.009z"/>
	<path fill="#FFFFFF" d="M383.563,348.655c-0.377,0-0.586-0.21-0.546-0.628l0.716-5.073c0.041-0.42,0.333-0.629,0.754-0.629h2.682
		l2.432-17.443h-2.683c-0.377,0-0.587-0.208-0.546-0.627l0.714-5.073c0.042-0.417,0.294-0.629,0.711-0.629h14.59
		c4.865,0,8.305,2.934,8.305,7.506c0,3.143-1.635,5.531-3.943,7.21c2.515,1.133,3.73,3.187,3.73,5.743
		c0,6.585-4.065,9.644-12.157,9.644H383.563z M398.32,342.325c3.061,0,4.737-1.383,4.737-3.479c0-1.635-1.341-2.684-3.897-2.684
		h-3.732l-0.84,6.163H398.32z M398.865,330.796c2.432,0,4.151-1.258,4.151-3.313c0-1.718-1.344-2.639-3.522-2.639h-2.475
		l-0.839,5.951H398.865z"/>
	<path fill="#FFFFFF" d="M428.553,348.655c-1.3,0-1.928-0.755-1.762-2.054l0.377-2.433h-0.208c0,0-1.427,4.78-6.121,4.78
		c-4.529,0-6.792-3.146-6.247-7.421l1.005-7.882h-1.886c-0.418,0-0.586-0.209-0.546-0.63l0.632-4.359
		c0.04-0.419,0.337-0.629,0.711-0.629h6.877c1.298,0,1.926,0.755,1.761,2.056l-1.258,8.97c-0.294,2.098-0.041,3.649,1.594,3.649
		c2.432,0,3.396-3.857,3.437-4.193l0.711-4.863h-1.551c-0.417,0-0.586-0.209-0.545-0.63l0.63-4.359
		c0.042-0.419,0.337-0.629,0.714-0.629h7.922c0.378,0,0.587,0.21,0.547,0.629l-2.015,14.383h1.846c0.421,0,0.586,0.207,0.545,0.627
		l-0.631,4.36c-0.041,0.418-0.333,0.628-0.713,0.628H428.553z"/>
	<path fill="#FFFFFF" d="M438.577,348.655c-0.38,0-0.586-0.21-0.545-0.628l0.628-4.36c0.044-0.42,0.294-0.627,0.713-0.627h1.846
		l1.342-9.393h-1.846c-0.376,0-0.588-0.209-0.547-0.63l0.587-4.359c0.085-0.419,0.296-0.629,0.713-0.629h7.212
		c0.42,0,0.631,0.21,0.546,0.629l-0.587,4.276h0.211c0,0,2.513-5.199,8.803-5.199c0.42,0,0.712,0.335,0.67,0.756l-0.795,5.618
		c-0.041,0.419-0.422,0.754-0.84,0.754h-1.844c-2.684,0-5.703,2.013-6.038,4.444l-0.544,3.733h1.511
		c0.417,0,0.586,0.207,0.542,0.627l-0.628,4.36c-0.041,0.418-0.335,0.628-0.711,0.628H438.577z"/>
	<path fill="#FFFFFF" d="M457.822,355.279c-0.251-0.252-0.419-0.628-0.127-0.965l3.104-3.73c0.251-0.337,0.628-0.293,0.922-0.043
		c1.005,0.841,1.887,1.846,5.156,1.846c3.352,0,5.196-1.26,5.575-3.731l0.294-1.97c0,0-1.846,2.306-5.659,2.306
		c-5.199,0-8.008-3.648-8.008-8.804c0-8.007,4.945-12.494,11.067-12.494c3.982,0,5.366,2.304,5.366,2.304h0.082l0.171-1.34
		c0.04-0.419,0.292-0.629,0.709-0.629h7.214c0.419,0,0.627,0.21,0.545,0.629l-0.588,4.359c-0.083,0.421-0.378,0.631-0.756,0.631
		h-1.633l-2.098,15.008c-0.963,6.792-6.58,9.935-12.828,9.935C461.051,358.591,458.658,356.077,457.822,355.279 M473.879,337.504
		c0-2.557-1.299-3.773-3.145-3.773c-2.893,0-4.654,2.432-4.654,5.576c0,2.349,1.3,3.733,3.355,3.733
		C471.573,343.04,473.879,341.444,473.879,337.504"/>
	<path fill="#FFFFFF" d="M492.498,339.307c0.126,2.599,1.844,3.691,4.066,3.691c2.934,0,5.533-2.309,5.533-2.309
		c0.295-0.293,0.671-0.418,0.964-0.039l2.222,2.933c0.294,0.379,0.253,0.672-0.042,1.007c-0.419,0.503-3.939,4.36-10.186,4.36
		c-5.617,0-9.853-3.439-9.853-9.224c0-7.757,6.876-11.991,12.285-11.991c5.954,0,8.845,3.145,8.845,8.678
		c0,2.434-0.587,2.895-1.049,2.895H492.498z M499.835,335.532c0.082-1.005-0.673-2.347-2.809-2.347
		c-1.427,0-3.062,0.502-3.943,2.347H499.835z"/>
	<path fill="#FFFFFF" d="M508.434,348.655c-0.38,0-0.588-0.21-0.546-0.628l0.627-4.36c0.044-0.42,0.296-0.627,0.713-0.627h1.847
		l1.342-9.393h-1.847c-0.376,0-0.588-0.209-0.546-0.63l0.587-4.359c0.086-0.419,0.295-0.629,0.714-0.629h7.212
		c0.419,0,0.631,0.21,0.545,0.629l-0.586,4.276h0.21c0,0,2.514-5.199,8.802-5.199c0.421,0,0.713,0.335,0.672,0.756l-0.797,5.618
		c-0.042,0.419-0.42,0.754-0.837,0.754h-1.848c-2.682,0-5.701,2.013-6.037,4.444l-0.542,3.733h1.508
		c0.419,0,0.588,0.207,0.545,0.627l-0.629,4.36c-0.04,0.418-0.335,0.628-0.711,0.628H508.434z"/>
	<path fill="#FFFFFF" d="M532.459,346.81h-0.084c0,0-0.041,0.754-0.086,1.09c-0.039,0.42-0.417,0.755-0.838,0.755h-3.354
		c-0.417,0-0.714-0.335-0.672-0.755l0.968-6.497c0.04-0.42,0.459-0.754,0.878-0.754h3.941c0.42,0,0.628,0.293,0.628,0.711v0.125
		c0,0,0.461,2.097,3.566,2.097c1.339,0,2.262-0.418,2.262-1.341c0-2.139-9.725-0.377-9.725-7.085c0-3.983,2.978-7.422,8.72-7.422
		c2.85,0,4.445,0.923,5.323,2.141h0.085v-0.507c0-0.878,0.42-1.213,0.881-1.213h3.059c0.422,0,0.673,0.335,0.628,0.753l-0.962,6.583
		c-0.042,0.422-0.46,0.755-0.882,0.755h-3.938c-0.42,0-0.713-0.333-0.632-0.755l0.044-0.209c0.209-1.174-1.132-2.097-3.143-2.097
		c-1.385,0-2.183,0.629-2.183,1.51c0,2.893,10.357,0.627,10.357,7.378c0,3.061-2.393,6.918-9.267,6.918
		C534.428,348.991,532.459,346.81,532.459,346.81"/>
	<path fill="#FFFFFF" d="M579.208,348.655c-0.755-0.043-1.259-0.585-1.718-1.51l-0.042-0.083c-1.887,1.131-4.066,1.887-6.665,1.887
		c-6.333,0-9.981-3.271-9.981-7.714c0-5.493,4.278-8.05,7.589-9.475c-0.713-0.964-1.72-2.809-1.72-4.989
		c0-4.57,3.522-8.469,9.434-8.469c4.948,0,7.464,2.685,7.464,6.456c0,4.235-3.608,7.087-6.878,8.848l2.141,3.52
		c0.166-0.586,0.251-1.173,0.628-3.772c0.041-0.42,0.292-0.63,0.712-0.63h7.965c0.422,0,0.631,0.21,0.546,0.63l-0.461,3.396
		c-0.085,0.419-0.336,0.628-0.713,0.628h-3.019c-0.461,1.595-1.258,3.439-2.473,5.2l0.292,0.463h3.188
		c0.418,0,0.586,0.207,0.542,0.627l-0.627,4.36c-0.041,0.418-0.336,0.628-0.713,0.628H579.208z M571.2,336.455
		c-1.466,0.88-2.685,2.055-2.685,3.774c0,1.676,1.09,2.725,3.232,2.725c1.131,0,2.136-0.209,2.934-0.587L571.2,336.455z
		 M577.197,325.89c0-0.965-0.547-1.677-1.551-1.677c-1.469,0-2.309,1.175-2.309,2.558c0,1.093,0.506,2.055,0.966,2.768
		C576.355,328.448,577.197,327.483,577.197,325.89"/>
	<path fill="#FFFFFF" d="M600.721,348.655c-0.376,0-0.586-0.21-0.546-0.628l0.714-5.073c0.041-0.418,0.333-0.629,0.755-0.629h2.683
		l2.434-17.443h-2.686c-0.375,0-0.586-0.208-0.545-0.627l0.712-5.073c0.044-0.417,0.295-0.628,0.713-0.628h11.824
		c7.293,0,13.628,4.654,13.628,13.332c0,10.398-8.136,16.77-15.514,16.77H600.721z M612.838,342.325
		c6.038,0,9.643-2.391,9.643-10.021c0-5.156-2.852-7.423-7.758-7.423h-0.546l-2.43,17.443H612.838z"/>
	<path fill="#FFFFFF" d="M632.253,339.852c0-7.296,5.365-12.117,12.785-12.117c6.038,0,9.769,3.521,9.769,9.099
		c0,7.169-4.991,12.116-12.787,12.116C635.774,348.949,632.253,345.386,632.253,339.852 M647.596,337.461
		c0-2.305-1.256-3.73-3.395-3.73c-2.768,0-4.696,2.096-4.696,5.365c0,2.308,1.133,3.901,3.356,3.901
		C645.753,342.997,647.596,340.605,647.596,337.461"/>
	<path fill="#FFFFFF" d="M655.946,355.279c-0.255-0.252-0.421-0.628-0.125-0.965l3.099-3.73c0.252-0.337,0.631-0.293,0.924-0.043
		c1.006,0.841,1.887,1.846,5.155,1.846c3.355,0,5.201-1.26,5.576-3.731l0.296-1.97c0,0-1.845,2.306-5.662,2.306
		c-5.197,0-8.008-3.648-8.008-8.804c0-8.007,4.948-12.494,11.068-12.494c3.983,0,5.365,2.304,5.365,2.304h0.086l0.168-1.34
		c0.043-0.419,0.295-0.629,0.714-0.629h7.208c0.423,0,0.632,0.21,0.547,0.629l-0.588,4.359c-0.083,0.421-0.377,0.631-0.751,0.631
		h-1.639l-2.094,15.008c-0.968,6.792-6.584,9.935-12.828,9.935C659.172,358.591,656.783,356.077,655.946,355.279 M672.002,337.504
		c0-2.557-1.3-3.773-3.146-3.773c-2.895,0-4.654,2.432-4.654,5.576c0,2.349,1.304,3.733,3.354,3.733
		C669.694,343.04,672.002,341.444,672.002,337.504"/>
	<path fill="#FFFFFF" d="M687.6,346.81h-0.084c0,0-0.041,0.754-0.08,1.09c-0.045,0.42-0.422,0.755-0.841,0.755h-3.353
		c-0.42,0-0.713-0.335-0.672-0.755l0.965-6.497c0.043-0.42,0.462-0.754,0.878-0.754h3.945c0.417,0,0.627,0.293,0.627,0.711v0.125
		c0,0,0.463,2.097,3.562,2.097c1.342,0,2.267-0.418,2.267-1.341c0-2.139-9.727-0.377-9.727-7.085c0-3.983,2.977-7.422,8.719-7.422
		c2.852,0,4.444,0.923,5.326,2.141h0.084v-0.507c0-0.878,0.418-1.213,0.879-1.213h3.06c0.42,0,0.672,0.335,0.629,0.753l-0.962,6.583
		c-0.044,0.422-0.463,0.755-0.882,0.755h-3.941c-0.418,0-0.716-0.333-0.628-0.755l0.041-0.209c0.21-1.174-1.134-2.097-3.144-2.097
		c-1.385,0-2.179,0.629-2.179,1.51c0,2.893,10.354,0.627,10.354,7.378c0,3.061-2.388,6.918-9.264,6.918
		C689.571,348.991,687.6,346.81,687.6,346.81"/>
</g>
</svg>
