<?xml version="1.0" encoding="utf-8"?>
<!-- Generator: Adobe Illustrator 17.0.0, SVG Export Plug-In . SVG Version: 6.00 Build 0)  -->
<!DOCTYPE svg PUBLIC "-//W3C//DTD SVG 1.1//EN" "http://www.w3.org/Graphics/SVG/1.1/DTD/svg11.dtd">
<svg version="1.1" id="Camada_1" xmlns="http://www.w3.org/2000/svg" xmlns:xlink="http://www.w3.org/1999/xlink" x="0px" y="0px"
	 width="50px" height="80.117px" viewBox="0 0 50 80.117" enable-background="new 0 0 50 80.117" xml:space="preserve">
<g>
	<path fill-rule="evenodd" clip-rule="evenodd" d="M0,24.864C0,11.13,11.193,0,25,0c13.807,0,25,11.13,25,24.864
		c0,13.73-25,55.253-25,55.253S0,38.594,0,24.864z"/>
	<g>
		<path fill="#FFFFFF" d="M38.578,32.518c-0.018-1.088-0.21-2.146-0.56-3.164c-0.642-1.893-1.846-3.611-3.536-5.015
			c-1.342-1.12-2.92-1.96-4.629-2.504c-1.442-0.451-2.972-0.688-4.541-0.688h-0.625c-0.218,0-0.446,0.002-0.664,0.013
			c-3.195,0.135-6.193,1.252-8.51,3.179c-1.211,1.006-2.168,2.173-2.854,3.454c-0.782,1.458-1.212,3.059-1.237,4.725
			c-0.013,0.979,0.359,1.902,1.043,2.596c0.391,0.398,0.85,0.686,1.362,0.87c-0.022,0.063-0.037,0.129-0.048,0.192
			c-0.013,0.068-0.018,0.138-0.018,0.21v0.97c0,0.044,0,0.087,0.004,0.131c-0.524,0.162-1.003,0.455-1.39,0.848
			c-0.112,0.114-0.216,0.231-0.313,0.363c-0.616,0.848-0.789,1.949-0.465,2.946l0.645,1.989c0.553,1.706,2.131,2.854,3.927,2.854
			h17.322c1.796,0,3.374-1.148,3.929-2.854l0.643-1.989c0.323-1.001,0.151-2.098-0.468-2.946c-0.066-0.088-0.136-0.175-0.212-0.256
			c-0.404-0.452-0.918-0.778-1.49-0.955c0.006-0.044,0.011-0.087,0.011-0.131v-0.97c0-0.037-0.005-0.072-0.009-0.112
			c-0.004-0.065-0.018-0.129-0.03-0.195c0.629-0.162,1.204-0.489,1.67-0.966C38.222,34.419,38.591,33.497,38.578,32.518
			 M14.337,29.72c1.22-3.025,4.264-5.341,8.029-6.027c0.747-0.136,1.525-0.21,2.321-0.21h0.625c2.259,0,4.362,0.58,6.11,1.571
			c2.497,1.418,4.257,3.687,4.703,6.305c0.065,0.391,0.107,0.791,0.116,1.198c0.011,0.719-0.579,1.307-1.303,1.307h-2.524H21.064
			h-6.003c-0.723,0-1.313-0.588-1.302-1.307C13.774,31.563,13.979,30.612,14.337,29.72 M35.842,40.923l-0.647,1.989
			c-0.238,0.736-0.928,1.239-1.704,1.239H16.169c-0.778,0-1.469-0.503-1.705-1.239l-0.642-1.989
			c-0.201-0.612,0.254-1.237,0.898-1.237h20.22C35.584,39.686,36.035,40.311,35.842,40.923"/>
		<path fill="#FFFFFF" d="M21.44,27.913c0.8,0,1.443-0.542,1.443-1.208c0-0.672-0.643-1.218-1.443-1.218
			c-0.267,0-0.511,0.063-0.725,0.169c-0.232,0.116-0.428,0.284-0.555,0.488c-0.098,0.169-0.162,0.355-0.162,0.561
			C19.998,27.371,20.644,27.913,21.44,27.913"/>
		<path fill="#FFFFFF" d="M28.259,27.849c0.795,0,1.442-0.542,1.442-1.215c0-0.669-0.647-1.211-1.442-1.211
			c-0.802,0-1.443,0.542-1.443,1.211C26.816,27.307,27.457,27.849,28.259,27.849"/>
		<path fill="#FFFFFF" d="M31.489,31.893c0.747,0,1.355-0.512,1.355-1.141c0-0.627-0.607-1.14-1.355-1.14
			c-0.752,0-1.357,0.514-1.357,1.14C30.131,31.381,30.737,31.893,31.489,31.893"/>
		<path fill="#FFFFFF" d="M18.135,32.238c0.796,0,1.443-0.542,1.443-1.213c0-0.671-0.647-1.213-1.443-1.213
			c-0.795,0-1.442,0.542-1.442,1.213C16.693,31.696,17.34,32.238,18.135,32.238"/>
		<path fill="#FFFFFF" d="M23.971,32.028c0.251,0.177,0.572,0.284,0.927,0.284c0.798,0,1.442-0.544,1.442-1.213
			c0-0.177-0.043-0.341-0.125-0.492c-0.225-0.424-0.732-0.721-1.318-0.721c-0.8,0-1.442,0.542-1.442,1.213
			C23.455,31.471,23.656,31.805,23.971,32.028"/>
		<path fill="#D27A33" d="M15.513,21.934c2.317-1.927,5.315-3.044,8.51-3.179c0.218-0.011,0.446-0.013,0.664-0.013h0.625
			c1.569,0,3.099,0.237,4.541,0.688c1.709,0.543,3.287,1.383,4.629,2.503c0.294,0.244,0.567,0.501,0.831,0.763
			c0.06,0.001,0.096,0.002,0.098,0.004c0.061-0.244,0.209-2.261,0.207-2.584c-0.026-3.736-4.078-5.864-1.899-8.131
			c0,0-1.842,0.628-1.954,2.311c-0.111,1.685,1.123,2.508,0.317,3.099c-1.209,0.876-5.236-0.34-1.894-4.167
			c0,0-0.287-3.77-3.936-5.731c0,0,1.868,4.029,0,4.525c-2.837,0.755-3.41-4.154-0.669-7.203c0,0-5.306,1.646-5.628,6.884
			c-0.151,2.378,0.92,4.513-0.872,4.635c-0.824,0.059-1.189-1.436-0.428-2.535c0,0-2.808,1.04-3.407,5.684
			c-0.04,0.318-0.055,1.913-0.06,2.729C15.295,22.122,15.402,22.026,15.513,21.934"/>
	</g>
</g>
</svg>
